<svg width="35" height="35" viewBox="0 0 35 35" fill="none" xmlns="http://www.w3.org/2000/svg">
<circle cx="17.7692" cy="17.2308" r="16.2308" stroke="white" stroke-opacity="0.85" stroke-width="2"/>
<path d="M27.6514 16.7727C27.6532 16.7727 27.6546 16.7727 27.6564 16.7727C27.7823 16.7727 27.9024 16.7199 27.9877 16.6273C28.0743 16.5334 28.1172 16.4075 28.1059 16.2802C27.6528 11.2955 23.7065 7.34764 18.7216 6.89354C18.5952 6.88361 18.468 6.92469 18.3741 7.01181C18.2802 7.09848 18.2278 7.2208 18.2292 7.34855C18.3077 13.9731 19.1816 16.6801 27.6514 16.7727ZM27.6514 17.6881C19.1816 17.7806 18.3082 20.4876 18.2296 27.1122C18.2283 27.24 18.2806 27.3623 18.3745 27.4489C18.4585 27.5261 18.5682 27.569 18.681 27.569C18.6945 27.569 18.7085 27.5686 18.7221 27.5672C23.7069 27.1131 27.6532 23.1657 28.1059 18.1806C28.1172 18.0533 28.0748 17.9273 27.9877 17.8334C27.9006 17.7395 27.7791 17.6931 27.6514 17.6881ZM16.7866 6.8958C11.8176 7.36299 7.88392 11.3099 7.43301 16.2811C7.42173 16.4084 7.46416 16.5343 7.55127 16.6282C7.63658 16.7208 7.75709 16.7731 7.88257 16.7731C7.88438 16.7731 7.88618 16.7731 7.88799 16.7731C16.3298 16.6761 17.2014 13.9704 17.2809 7.35035C17.2822 7.22261 17.2294 7.09983 17.1355 7.01316C17.0407 6.9265 16.9139 6.88407 16.7866 6.8958ZM7.88754 17.6876C7.74716 17.6718 7.63703 17.7386 7.55082 17.8325C7.46416 17.9264 7.42128 18.0524 7.43256 18.1797C7.88347 23.1508 11.8176 27.0978 16.7866 27.565C16.8006 27.5663 16.8151 27.5668 16.8291 27.5668C16.9419 27.5668 17.0511 27.5243 17.1351 27.4471C17.229 27.3605 17.2818 27.2377 17.2804 27.11C17.201 20.4903 16.3298 17.7847 7.88754 17.6876Z" fill="white" fill-opacity="0.85"/>
</svg>
