<svg width="35" height="35" viewBox="0 0 35 35" fill="none" xmlns="http://www.w3.org/2000/svg">
<circle cx="17.7692" cy="17.2308" r="16.2308" stroke="#DBDBDB" stroke-opacity="0.85" stroke-width="2"/>
<path d="M27.6514 16.7729C27.6532 16.7729 27.6546 16.7729 27.6564 16.7729C27.7823 16.7729 27.9024 16.7201 27.9877 16.6276C28.0743 16.5337 28.1172 16.4077 28.1059 16.2804C27.6528 11.2957 23.7065 7.34789 18.7216 6.89379C18.5952 6.88386 18.468 6.92493 18.3741 7.01205C18.2802 7.09872 18.2278 7.22105 18.2292 7.34879C18.3077 13.9734 19.1816 16.6804 27.6514 16.7729ZM27.6514 17.6883C19.1816 17.7809 18.3082 20.4879 18.2296 27.1125C18.2283 27.2402 18.2806 27.3625 18.3745 27.4492C18.4585 27.5264 18.5682 27.5693 18.681 27.5693C18.6945 27.5693 18.7085 27.5688 18.7221 27.5675C23.7069 27.1134 27.6532 23.1659 28.1059 18.1808C28.1172 18.0535 28.0748 17.9276 27.9877 17.8337C27.9006 17.7398 27.7791 17.6933 27.6514 17.6883ZM16.7866 6.89605C11.8176 7.36323 7.88392 11.3102 7.43301 16.2813C7.42173 16.4086 7.46416 16.5346 7.55127 16.6285C7.63658 16.721 7.75709 16.7734 7.88257 16.7734C7.88438 16.7734 7.88618 16.7734 7.88799 16.7734C16.3298 16.6763 17.2014 13.9707 17.2809 7.3506C17.2822 7.22285 17.2294 7.10007 17.1355 7.01341C17.0407 6.92674 16.9139 6.88431 16.7866 6.89605ZM7.88754 17.6879C7.74716 17.6721 7.63703 17.7389 7.55082 17.8328C7.46416 17.9267 7.42128 18.0526 7.43256 18.1799C7.88347 23.1511 11.8176 27.098 16.7866 27.5652C16.8006 27.5666 16.8151 27.567 16.8291 27.567C16.9419 27.567 17.0511 27.5246 17.1351 27.4474C17.229 27.3607 17.2818 27.2379 17.2804 27.1102C17.201 20.4906 16.3298 17.7849 7.88754 17.6879Z" fill="#DBDBDB" fill-opacity="0.85"/>
</svg>
