<svg width="100" height="100" viewBox="0 0 100 100" fill="none" xmlns="http://www.w3.org/2000/svg">
<path d="M48.5738 12C58.9081 12 68.265 16.3093 75.0378 23.2767C81.8109 30.2437 86 39.869 86 50.5C86 61.1308 81.8109 70.7563 75.0378 77.7233C68.2649 84.6902 58.9081 89 48.5738 89C38.2393 89 28.8825 84.6902 22.1098 77.7233C18.7514 74.2687 16.0287 70.1601 14.1362 65.5996L20.2161 62.3389C21.7683 66.2695 24.0696 69.8045 26.9389 72.7556C32.4751 78.4507 40.1245 81.9737 48.5737 81.9737C57.0227 81.9737 64.6723 78.4507 70.2085 72.7556C75.745 67.0605 79.1695 59.1915 79.1695 50.5001C79.1695 41.8084 75.745 33.9396 70.2085 28.2446C64.6723 22.5493 57.0227 19.0265 48.5737 19.0265C40.1245 19.0265 32.4751 22.5493 26.9389 28.2446C23.9716 31.2965 21.6116 34.9734 20.0596 39.0663L14 35.7338C15.8967 31.0404 18.6696 26.8156 22.1098 23.2769C28.8825 16.3095 38.2393 12.0002 48.5738 12.0002V12Z" fill="#A9002A"/>
<path d="M48.6916 24C55.7855 24 62.2085 26.9667 66.8575 31.7621C68.0221 32.9631 69.0754 34.2793 70 35.692L64.2096 38.8061C63.6243 37.9814 62.9789 37.2046 62.28 36.4837C58.8028 32.8971 53.9983 30.6785 48.6916 30.6785C43.3848 30.6785 38.5801 32.8971 35.1027 36.4837C31.6258 40.0705 29.4747 45.0262 29.4747 50.5C29.4747 55.974 31.6258 60.9295 35.1027 64.5161C38.5801 68.1029 43.3846 70.3215 48.6916 70.3215C53.9983 70.3215 58.8028 68.1029 62.28 64.5161C62.7586 64.0224 63.2117 63.5026 63.6381 62.9595L69.4247 66.1506C68.6457 67.2467 67.7872 68.279 66.8575 69.2377C62.2083 74.0335 55.7852 77 48.6916 77C41.5978 77 35.1747 74.0335 30.5252 69.2377C25.8762 64.4425 23 57.8172 23 50.5001C23 43.1829 25.876 36.558 30.5252 31.7621C35.1747 26.9665 41.5977 24 48.6916 24L48.6916 24Z" fill="#3C3D3E"/>
</svg>
