<svg width="208" height="42" viewBox="0 0 208 42" fill="none" xmlns="http://www.w3.org/2000/svg">
<g clip-path="url(#clip0_1_297)">
<path d="M13.5033 0.0161133C17.5395 0.0161133 21.194 1.69647 23.8393 4.41331C26.4846 7.12998 28.1207 10.8832 28.1207 15.0286C28.1207 19.174 26.4846 22.9273 23.8393 25.644C21.194 28.3606 17.5396 30.0412 13.5033 30.0412C9.46702 30.0412 5.81256 28.3606 3.16739 25.644C1.85569 24.2969 0.7923 22.6948 0.0531766 20.9165L2.42777 19.645C3.034 21.1777 3.93282 22.5561 5.05347 23.7069C7.21573 25.9276 10.2033 27.3014 13.5033 27.3014C16.8032 27.3014 19.7909 25.9276 21.9531 23.7069C24.1155 21.4862 25.453 18.4178 25.453 15.0287C25.453 11.6395 24.1155 8.57114 21.9531 6.35044C19.7908 4.12965 16.8032 2.75598 13.5033 2.75598C10.2033 2.75598 7.21572 4.12965 5.05347 6.35044C3.89454 7.54052 2.97279 8.97426 2.36664 10.5702L-3.05176e-05 9.27078C0.740741 7.44064 1.82377 5.79323 3.16739 4.41338C5.81255 1.69654 9.467 0.0161829 13.5033 0.0161829V0.0161133Z" fill="white"/>
<path d="M13.5033 4.62207C16.3007 4.62207 18.8335 5.7869 20.6668 7.66974C21.126 8.1413 21.5413 8.6581 21.906 9.21277L19.6226 10.4355C19.3918 10.1117 19.1373 9.80667 18.8617 9.52361C17.4905 8.11538 15.5959 7.24428 13.5033 7.24428C11.4107 7.24428 9.516 8.11538 8.14475 9.52361C6.77367 10.9319 5.92541 12.8777 5.92541 15.0269C5.92541 17.1762 6.77367 19.1219 8.14475 20.5302C9.516 21.9385 11.4106 22.8096 13.5033 22.8096C15.5959 22.8096 17.4905 21.9385 18.8617 20.5302C19.0504 20.3363 19.2291 20.1322 19.3972 19.919L21.6791 21.1719C21.3719 21.6023 21.0334 22.0076 20.6668 22.384C18.8334 24.267 16.3006 25.4318 13.5033 25.4318C10.706 25.4318 8.17315 24.267 6.33969 22.384C4.5064 20.5013 3.37223 17.8999 3.37223 15.0269C3.37223 12.154 4.50632 9.55278 6.33969 7.66974C8.17314 5.78681 10.706 4.62207 13.5033 4.62207L13.5033 4.62207Z" fill="white"/>
<path d="M51.7102 17.2559H49.0559C48.7799 19.5458 47.6543 21.2252 45.1911 21.2252C41.9633 21.2252 40.7317 18.281 40.7317 15.402C40.7317 12.5451 42.027 9.60085 45.2123 9.60085C47.1659 9.60085 48.5887 10.7132 48.9496 12.5887H51.5828C51.0732 8.99018 48.2702 7.28906 45.2548 7.28906C40.668 7.28906 38.0561 10.9966 38.0561 15.402C38.0561 20.3091 40.8591 23.5369 45.1273 23.5369C48.9072 23.5369 51.4342 21.0289 51.7102 17.2559L51.7102 17.2559Z" fill="white"/>
<path d="M53.5739 23.1663H56.653L63.151 11.2585V23.1663H65.8053V7.63818H62.7262L56.2283 19.546V7.63818H53.5739V23.1663Z" fill="white"/>
<path d="M84.1897 7.63818H80.4948L76.4174 19.7858L72.1923 7.63818H68.4757V23.1663H70.9815V11.1931L75.2927 23.1663H77.4581L81.6629 11.1931V23.1663H84.1897V7.63818Z" fill="white"/>
<path d="M86.8603 7.63818V23.1663H94.5686C97.3928 23.1663 99.3465 21.3343 99.3465 18.5864C99.3465 16.5799 98.221 15.2496 96.501 14.8134C97.7751 14.29 98.667 13.0468 98.667 11.542C98.667 9.23027 97.0319 7.63819 93.7616 7.63819H86.8602L86.8603 7.63818ZM89.451 9.84093H93.1458C94.6536 9.84093 96.0339 10.0372 96.0339 11.9782C96.0339 13.5484 95.0358 14.1155 93.0609 14.1155H89.451V9.84094L89.451 9.84093ZM89.451 16.0784H93.3794C95.0995 16.0784 96.6921 16.3836 96.6921 18.5209C96.6921 20.5055 95.2057 20.9417 93.4219 20.9417H89.451V16.0784H89.451Z" fill="white"/>
<path d="M107.878 7.26758C103.249 7.26758 100.573 10.8443 100.573 15.4024C100.573 20.2441 103.504 23.5372 107.835 23.5372C112.146 23.5372 115.098 20.2441 115.098 15.4024C115.098 10.5826 112.146 7.26758 107.878 7.26758H107.878ZM107.835 9.55768C110.639 9.55768 112.422 11.8257 112.422 15.3806C112.422 18.9355 110.639 21.2472 107.878 21.2472C105.033 21.2472 103.249 18.9791 103.249 15.3588C103.249 11.8476 105.054 9.55768 107.835 9.55768V9.55768Z" fill="white"/>
<path d="M128.471 23.1663V7.63818H118.596L118.299 16.6453C118.172 20.5928 117.343 21.2471 116.26 21.2471C116.048 21.2471 115.538 21.2035 115.22 21.0727V23.1663C115.602 23.2971 116.218 23.4498 116.813 23.4498C118.979 23.4498 120.699 21.7269 120.868 17.3869L121.145 9.99362H125.816V23.1663H128.471L128.471 23.1663Z" fill="white"/>
<path d="M149.269 17.2559H146.614C146.338 19.5458 145.213 21.2252 142.75 21.2252C139.522 21.2252 138.29 18.281 138.29 15.402C138.29 12.5451 139.586 9.60085 142.771 9.60085C144.724 9.60085 146.147 10.7132 146.508 12.5887H149.141C148.632 8.99018 145.829 7.28906 142.813 7.28906C138.227 7.28906 135.615 10.9966 135.615 15.402C135.615 20.3091 138.418 23.5369 142.686 23.5369C146.466 23.5369 148.993 21.0289 149.269 17.2559V17.2559Z" fill="white"/>
<path d="M161.644 7.63818H149.349V9.99362H154.169V23.1663H156.823V9.99362H161.644V7.63818Z" fill="white"/>
<path d="M162.87 23.1663H165.949L172.447 11.2585V23.1663H175.101V7.63818H172.022L165.524 19.546V7.63818H162.87V23.1663Z" fill="white"/>
<path d="M189.6 23.1663V7.63818H179.726L179.428 16.6453C179.301 20.5928 178.473 21.2471 177.39 21.2471C177.177 21.2471 176.668 21.2035 176.349 21.0727V23.1663C176.731 23.2971 177.347 23.4498 177.942 23.4498C180.108 23.4498 181.828 21.7269 181.998 17.3869L182.274 9.99362H186.945V23.1663H189.6L189.6 23.1663Z" fill="white"/>
<path d="M204 23.1663V7.63818H197.12C193.892 7.63818 192.108 9.36116 192.108 11.9346C192.108 13.8974 192.703 15.6422 195.378 16.4926L190.728 23.1663H194.041L198.33 16.7544H201.345V23.1663H204L204 23.1663ZM201.345 14.6825H197.353C195.655 14.6825 194.763 13.8102 194.763 12.1745C194.763 10.5605 195.591 9.8627 197.396 9.8627H201.345V14.6825L201.345 14.6825Z" fill="white"/>
</g>
<path d="M39.416 39V30.6H42.908C43.796 30.6 44.492 30.784 44.996 31.152C45.508 31.512 45.764 32.044 45.764 32.748C45.764 33.444 45.52 33.972 45.032 34.332C44.544 34.684 43.904 34.86 43.112 34.86L43.316 34.56C44.252 34.56 44.964 34.744 45.452 35.112C45.94 35.48 46.184 36.02 46.184 36.732C46.184 37.452 45.928 38.012 45.416 38.412C44.912 38.804 44.152 39 43.136 39H39.416ZM40.292 38.292H43.136C43.848 38.292 44.388 38.16 44.756 37.896C45.124 37.632 45.308 37.224 45.308 36.672C45.308 36.128 45.124 35.728 44.756 35.472C44.388 35.216 43.848 35.088 43.136 35.088H40.292V38.292ZM40.292 34.404H42.86C43.508 34.404 44.004 34.276 44.348 34.02C44.7 33.756 44.876 33.368 44.876 32.856C44.876 32.344 44.7 31.96 44.348 31.704C44.004 31.44 43.508 31.308 42.86 31.308H40.292V34.404ZM50.5403 39.06C49.8843 39.06 49.3083 38.924 48.8123 38.652C48.3163 38.372 47.9283 37.992 47.6483 37.512C47.3683 37.024 47.2283 36.468 47.2283 35.844C47.2283 35.22 47.3603 34.668 47.6243 34.188C47.8963 33.708 48.2643 33.332 48.7283 33.06C49.2003 32.78 49.7283 32.64 50.3123 32.64C50.9043 32.64 51.4283 32.776 51.8843 33.048C52.3483 33.312 52.7123 33.688 52.9763 34.176C53.2403 34.656 53.3723 35.212 53.3723 35.844C53.3723 35.884 53.3683 35.928 53.3603 35.976C53.3603 36.016 53.3603 36.06 53.3603 36.108H47.8763V35.472H52.9043L52.5683 35.724C52.5683 35.268 52.4683 34.864 52.2683 34.512C52.0763 34.152 51.8123 33.872 51.4763 33.672C51.1403 33.472 50.7523 33.372 50.3123 33.372C49.8803 33.372 49.4923 33.472 49.1483 33.672C48.8043 33.872 48.5363 34.152 48.3443 34.512C48.1523 34.872 48.0563 35.284 48.0563 35.748V35.88C48.0563 36.36 48.1603 36.784 48.3683 37.152C48.5843 37.512 48.8803 37.796 49.2563 38.004C49.6403 38.204 50.0763 38.304 50.5643 38.304C50.9483 38.304 51.3043 38.236 51.6323 38.1C51.9683 37.964 52.2563 37.756 52.4963 37.476L52.9763 38.028C52.6963 38.364 52.3443 38.62 51.9203 38.796C51.5043 38.972 51.0443 39.06 50.5403 39.06ZM57.7302 39.072C57.2182 39.072 56.7622 38.988 56.3622 38.82C55.9702 38.652 55.6342 38.396 55.3542 38.052C55.0742 37.708 54.8622 37.284 54.7182 36.78C54.5742 36.268 54.5022 35.676 54.5022 35.004C54.5022 34.404 54.5582 33.88 54.6702 33.432C54.7822 32.976 54.9382 32.584 55.1382 32.256C55.3382 31.928 55.5702 31.652 55.8342 31.428C56.1062 31.196 56.3982 31.012 56.7102 30.876C57.0302 30.732 57.3583 30.624 57.6942 30.552L60.5263 29.892L60.6702 30.684L58.0062 31.284C57.8382 31.324 57.6342 31.38 57.3942 31.452C57.1622 31.524 56.9222 31.632 56.6742 31.776C56.4342 31.92 56.2102 32.12 56.0022 32.376C55.7942 32.632 55.6262 32.964 55.4982 33.372C55.3782 33.772 55.3182 34.272 55.3182 34.872C55.3182 35 55.3222 35.104 55.3302 35.184C55.3382 35.256 55.3462 35.336 55.3542 35.424C55.3702 35.504 55.3822 35.624 55.3902 35.784L55.0182 35.472C55.1062 34.984 55.2862 34.56 55.5582 34.2C55.8302 33.832 56.1702 33.548 56.5782 33.348C56.9942 33.14 57.4542 33.036 57.9582 33.036C58.5422 33.036 59.0623 33.164 59.5183 33.42C59.9743 33.668 60.3303 34.016 60.5863 34.464C60.8503 34.912 60.9823 35.432 60.9823 36.024C60.9823 36.608 60.8463 37.132 60.5742 37.596C60.3102 38.06 59.9342 38.424 59.4462 38.688C58.9583 38.944 58.3863 39.072 57.7302 39.072ZM57.8263 38.364C58.2743 38.364 58.6703 38.264 59.0143 38.064C59.3583 37.856 59.6263 37.576 59.8183 37.224C60.0182 36.872 60.1182 36.476 60.1182 36.036C60.1182 35.604 60.0182 35.22 59.8183 34.884C59.6263 34.548 59.3583 34.284 59.0143 34.092C58.6703 33.892 58.2702 33.792 57.8142 33.792C57.3662 33.792 56.9702 33.888 56.6262 34.08C56.2822 34.264 56.0102 34.524 55.8102 34.86C55.6182 35.196 55.5222 35.584 55.5222 36.024C55.5222 36.464 55.6182 36.86 55.8102 37.212C56.0102 37.564 56.2822 37.844 56.6262 38.052C56.9782 38.26 57.3782 38.364 57.8263 38.364ZM62.0736 36.12V35.376H65.2176V36.12H62.0736ZM69.5448 39.06C68.9208 39.06 68.3608 38.924 67.8648 38.652C67.3768 38.372 66.9928 37.992 66.7128 37.512C66.4328 37.024 66.2928 36.468 66.2928 35.844C66.2928 35.212 66.4328 34.656 66.7128 34.176C66.9928 33.696 67.3768 33.32 67.8648 33.048C68.3608 32.776 68.9208 32.64 69.5448 32.64C70.0808 32.64 70.5648 32.744 70.9968 32.952C71.4288 33.16 71.7688 33.472 72.0168 33.888L71.3808 34.32C71.1648 34 70.8968 33.764 70.5768 33.612C70.2568 33.46 69.9088 33.384 69.5328 33.384C69.0848 33.384 68.6808 33.488 68.3208 33.696C67.9608 33.896 67.6768 34.18 67.4688 34.548C67.2608 34.916 67.1568 35.348 67.1568 35.844C67.1568 36.34 67.2608 36.772 67.4688 37.14C67.6768 37.508 67.9608 37.796 68.3208 38.004C68.6808 38.204 69.0848 38.304 69.5328 38.304C69.9088 38.304 70.2568 38.228 70.5768 38.076C70.8968 37.924 71.1648 37.692 71.3808 37.38L72.0168 37.812C71.7688 38.22 71.4288 38.532 70.9968 38.748C70.5648 38.956 70.0808 39.06 69.5448 39.06ZM74.3893 39V33.216L74.6053 33.444H72.0013V32.7H77.6293V33.444H75.0253L75.2413 33.216V39H74.3893ZM78.6092 41.388C78.3132 41.388 78.0292 41.34 77.7572 41.244C77.4932 41.148 77.2652 41.004 77.0732 40.812L77.4692 40.176C77.6292 40.328 77.8012 40.444 77.9852 40.524C78.1772 40.612 78.3892 40.656 78.6212 40.656C78.9012 40.656 79.1412 40.576 79.3412 40.416C79.5492 40.264 79.7452 39.992 79.9292 39.6L80.3372 38.676L80.4332 38.544L83.0252 32.7H83.8652L80.7092 39.756C80.5332 40.164 80.3372 40.488 80.1212 40.728C79.9132 40.968 79.6852 41.136 79.4372 41.232C79.1892 41.336 78.9132 41.388 78.6092 41.388ZM80.2892 39.18L77.3852 32.7H78.2732L80.8412 38.484L80.2892 39.18ZM88.8831 38.592V33.444H85.8471L85.7751 34.848C85.7591 35.272 85.7311 35.688 85.6911 36.096C85.6591 36.504 85.5991 36.88 85.5111 37.224C85.4311 37.56 85.3151 37.836 85.1631 38.052C85.0111 38.26 84.8151 38.38 84.5751 38.412L83.7231 38.256C83.9711 38.264 84.1751 38.176 84.3351 37.992C84.4951 37.8 84.6191 37.54 84.7071 37.212C84.7951 36.884 84.8591 36.512 84.8991 36.096C84.9391 35.672 84.9711 35.24 84.9951 34.8L85.0791 32.7H89.7351V38.592H88.8831ZM83.4591 40.524V38.256H90.7191V40.524H89.9151V39H84.2631V40.524H83.4591ZM92.0195 39V32.7H92.8715V37.704L97.0835 32.7H97.8395V39H96.9875V33.984L92.7875 39H92.0195ZM103.989 39V36.732L104.145 36.912H102.009C101.201 36.912 100.569 36.736 100.113 36.384C99.6572 36.032 99.4292 35.52 99.4292 34.848C99.4292 34.128 99.6732 33.592 100.161 33.24C100.649 32.88 101.301 32.7 102.117 32.7H104.769V39H103.989ZM99.3812 39L101.109 36.576H101.997L100.305 39H99.3812ZM103.989 36.48V33.192L104.145 33.444H102.141C101.557 33.444 101.101 33.556 100.773 33.78C100.453 34.004 100.293 34.368 100.293 34.872C100.293 35.808 100.889 36.276 102.081 36.276H104.145L103.989 36.48ZM109.823 39V30.6H110.555L114.395 37.152H114.011L117.815 30.6H118.547V39H117.695V31.932H117.899L114.395 37.932H113.975L110.447 31.932H110.675V39H109.823ZM123.406 39.06C122.798 39.06 122.25 38.924 121.762 38.652C121.282 38.372 120.902 37.992 120.622 37.512C120.342 37.024 120.202 36.468 120.202 35.844C120.202 35.212 120.342 34.656 120.622 34.176C120.902 33.696 121.282 33.32 121.762 33.048C122.242 32.776 122.79 32.64 123.406 32.64C124.03 32.64 124.582 32.776 125.062 33.048C125.55 33.32 125.93 33.696 126.202 34.176C126.482 34.656 126.622 35.212 126.622 35.844C126.622 36.468 126.482 37.024 126.202 37.512C125.93 37.992 125.55 38.372 125.062 38.652C124.574 38.924 124.022 39.06 123.406 39.06ZM123.406 38.304C123.862 38.304 124.266 38.204 124.618 38.004C124.97 37.796 125.246 37.508 125.446 37.14C125.654 36.764 125.758 36.332 125.758 35.844C125.758 35.348 125.654 34.916 125.446 34.548C125.246 34.18 124.97 33.896 124.618 33.696C124.266 33.488 123.866 33.384 123.418 33.384C122.97 33.384 122.57 33.488 122.218 33.696C121.866 33.896 121.586 34.18 121.378 34.548C121.17 34.916 121.066 35.348 121.066 35.844C121.066 36.332 121.17 36.764 121.378 37.14C121.586 37.508 121.866 37.796 122.218 38.004C122.57 38.204 122.966 38.304 123.406 38.304ZM128.083 39V32.7H128.935V37.704L133.147 32.7H133.903V39H133.051V33.984L128.851 39H128.083ZM138.624 39.06C138 39.06 137.44 38.924 136.944 38.652C136.456 38.372 136.072 37.992 135.792 37.512C135.512 37.024 135.372 36.468 135.372 35.844C135.372 35.212 135.512 34.656 135.792 34.176C136.072 33.696 136.456 33.32 136.944 33.048C137.44 32.776 138 32.64 138.624 32.64C139.16 32.64 139.644 32.744 140.076 32.952C140.508 33.16 140.848 33.472 141.096 33.888L140.46 34.32C140.244 34 139.976 33.764 139.656 33.612C139.336 33.46 138.988 33.384 138.612 33.384C138.164 33.384 137.76 33.488 137.4 33.696C137.04 33.896 136.756 34.18 136.548 34.548C136.34 34.916 136.236 35.348 136.236 35.844C136.236 36.34 136.34 36.772 136.548 37.14C136.756 37.508 137.04 37.796 137.4 38.004C137.76 38.204 138.164 38.304 138.612 38.304C138.988 38.304 139.336 38.228 139.656 38.076C139.976 37.924 140.244 37.692 140.46 37.38L141.096 37.812C140.848 38.22 140.508 38.532 140.076 38.748C139.644 38.956 139.16 39.06 138.624 39.06ZM144.981 39.06C144.325 39.06 143.749 38.924 143.253 38.652C142.757 38.372 142.369 37.992 142.089 37.512C141.809 37.024 141.669 36.468 141.669 35.844C141.669 35.22 141.801 34.668 142.065 34.188C142.337 33.708 142.705 33.332 143.169 33.06C143.641 32.78 144.169 32.64 144.753 32.64C145.345 32.64 145.869 32.776 146.325 33.048C146.789 33.312 147.153 33.688 147.417 34.176C147.681 34.656 147.813 35.212 147.813 35.844C147.813 35.884 147.809 35.928 147.801 35.976C147.801 36.016 147.801 36.06 147.801 36.108H142.317V35.472H147.345L147.009 35.724C147.009 35.268 146.909 34.864 146.709 34.512C146.517 34.152 146.253 33.872 145.917 33.672C145.581 33.472 145.193 33.372 144.753 33.372C144.321 33.372 143.933 33.472 143.589 33.672C143.245 33.872 142.977 34.152 142.785 34.512C142.593 34.872 142.497 35.284 142.497 35.748V35.88C142.497 36.36 142.601 36.784 142.809 37.152C143.025 37.512 143.321 37.796 143.697 38.004C144.081 38.204 144.517 38.304 145.005 38.304C145.389 38.304 145.745 38.236 146.073 38.1C146.409 37.964 146.697 37.756 146.937 37.476L147.417 38.028C147.137 38.364 146.785 38.62 146.361 38.796C145.945 38.972 145.485 39.06 144.981 39.06ZM152.039 39.06C151.383 39.06 150.807 38.924 150.311 38.652C149.815 38.372 149.427 37.992 149.147 37.512C148.867 37.024 148.727 36.468 148.727 35.844C148.727 35.22 148.859 34.668 149.123 34.188C149.395 33.708 149.763 33.332 150.227 33.06C150.699 32.78 151.227 32.64 151.811 32.64C152.403 32.64 152.927 32.776 153.383 33.048C153.847 33.312 154.211 33.688 154.475 34.176C154.739 34.656 154.871 35.212 154.871 35.844C154.871 35.884 154.867 35.928 154.859 35.976C154.859 36.016 154.859 36.06 154.859 36.108H149.375V35.472H154.403L154.067 35.724C154.067 35.268 153.967 34.864 153.767 34.512C153.575 34.152 153.311 33.872 152.975 33.672C152.639 33.472 152.251 33.372 151.811 33.372C151.379 33.372 150.991 33.472 150.647 33.672C150.303 33.872 150.035 34.152 149.843 34.512C149.651 34.872 149.555 35.284 149.555 35.748V35.88C149.555 36.36 149.659 36.784 149.867 37.152C150.083 37.512 150.379 37.796 150.755 38.004C151.139 38.204 151.575 38.304 152.063 38.304C152.447 38.304 152.803 38.236 153.131 38.1C153.467 37.964 153.755 37.756 153.995 37.476L154.475 38.028C154.195 38.364 153.843 38.62 153.419 38.796C153.003 38.972 152.543 39.06 152.039 39.06ZM156.397 39V32.7H159.181C159.893 32.7 160.453 32.836 160.861 33.108C161.277 33.38 161.485 33.78 161.485 34.308C161.485 34.82 161.289 35.216 160.897 35.496C160.505 35.768 159.989 35.904 159.349 35.904L159.517 35.652C160.269 35.652 160.821 35.792 161.173 36.072C161.525 36.352 161.701 36.756 161.701 37.284C161.701 37.828 161.501 38.252 161.101 38.556C160.709 38.852 160.097 39 159.265 39H156.397ZM157.225 38.328H159.229C159.765 38.328 160.169 38.244 160.441 38.076C160.721 37.9 160.861 37.62 160.861 37.236C160.861 36.852 160.737 36.572 160.489 36.396C160.241 36.22 159.849 36.132 159.313 36.132H157.225V38.328ZM157.225 35.496H159.121C159.609 35.496 159.981 35.404 160.237 35.22C160.501 35.036 160.633 34.768 160.633 34.416C160.633 34.064 160.501 33.8 160.237 33.624C159.981 33.448 159.609 33.36 159.121 33.36H157.225V35.496ZM167.249 39V37.608L167.213 37.38V35.052C167.213 34.516 167.061 34.104 166.757 33.816C166.461 33.528 166.017 33.384 165.425 33.384C165.017 33.384 164.629 33.452 164.261 33.588C163.893 33.724 163.581 33.904 163.325 34.128L162.941 33.492C163.261 33.22 163.645 33.012 164.093 32.868C164.541 32.716 165.013 32.64 165.509 32.64C166.325 32.64 166.953 32.844 167.393 33.252C167.841 33.652 168.065 34.264 168.065 35.088V39H167.249ZM165.077 39.06C164.605 39.06 164.193 38.984 163.841 38.832C163.497 38.672 163.233 38.456 163.049 38.184C162.865 37.904 162.773 37.584 162.773 37.224C162.773 36.896 162.849 36.6 163.001 36.336C163.161 36.064 163.417 35.848 163.769 35.688C164.129 35.52 164.609 35.436 165.209 35.436H167.381V36.072H165.233C164.625 36.072 164.201 36.18 163.961 36.396C163.729 36.612 163.613 36.88 163.613 37.2C163.613 37.56 163.753 37.848 164.033 38.064C164.313 38.28 164.705 38.388 165.209 38.388C165.689 38.388 166.101 38.28 166.445 38.064C166.797 37.84 167.053 37.52 167.213 37.104L167.405 37.692C167.245 38.108 166.965 38.44 166.565 38.688C166.173 38.936 165.677 39.06 165.077 39.06ZM172.958 39V30.6H173.834V34.332H176.006V35.136H173.834V39H172.958ZM179.738 39.072C179.138 39.072 178.582 38.968 178.07 38.76C177.566 38.544 177.122 38.244 176.738 37.86C176.362 37.476 176.07 37.024 175.862 36.504C175.654 35.984 175.55 35.416 175.55 34.8C175.55 34.184 175.654 33.616 175.862 33.096C176.07 32.576 176.362 32.124 176.738 31.74C177.122 31.356 177.566 31.06 178.07 30.852C178.582 30.636 179.138 30.528 179.738 30.528C180.338 30.528 180.894 30.636 181.406 30.852C181.918 31.06 182.362 31.356 182.738 31.74C183.114 32.124 183.406 32.576 183.614 33.096C183.83 33.616 183.938 34.184 183.938 34.8C183.938 35.416 183.83 35.984 183.614 36.504C183.406 37.024 183.114 37.476 182.738 37.86C182.362 38.244 181.918 38.544 181.406 38.76C180.894 38.968 180.338 39.072 179.738 39.072ZM179.738 38.28C180.21 38.28 180.646 38.196 181.046 38.028C181.454 37.852 181.806 37.608 182.102 37.296C182.398 36.984 182.63 36.62 182.798 36.204C182.966 35.78 183.05 35.312 183.05 34.8C183.05 34.288 182.966 33.824 182.798 33.408C182.63 32.984 182.398 32.616 182.102 32.304C181.806 31.992 181.454 31.752 181.046 31.584C180.646 31.408 180.21 31.32 179.738 31.32C179.274 31.32 178.838 31.408 178.43 31.584C178.03 31.752 177.682 31.992 177.386 32.304C177.09 32.616 176.858 32.984 176.69 33.408C176.522 33.824 176.438 34.288 176.438 34.8C176.438 35.312 176.522 35.78 176.69 36.204C176.858 36.62 177.09 36.984 177.386 37.296C177.682 37.608 178.03 37.852 178.43 38.028C178.838 38.196 179.274 38.28 179.738 38.28ZM188.748 39.06C188.204 39.06 187.712 38.936 187.272 38.688C186.832 38.432 186.48 38.068 186.216 37.596C185.96 37.116 185.832 36.532 185.832 35.844C185.832 35.156 185.96 34.576 186.216 34.104C186.472 33.624 186.82 33.26 187.26 33.012C187.7 32.764 188.196 32.64 188.748 32.64C189.348 32.64 189.884 32.776 190.356 33.048C190.836 33.312 191.212 33.688 191.484 34.176C191.756 34.656 191.892 35.212 191.892 35.844C191.892 36.484 191.756 37.044 191.484 37.524C191.212 38.004 190.836 38.38 190.356 38.652C189.884 38.924 189.348 39.06 188.748 39.06ZM185.496 41.328V32.7H186.312V34.596L186.228 35.856L186.348 37.128V41.328H185.496ZM188.688 38.304C189.136 38.304 189.536 38.204 189.888 38.004C190.24 37.796 190.52 37.508 190.728 37.14C190.936 36.764 191.04 36.332 191.04 35.844C191.04 35.356 190.936 34.928 190.728 34.56C190.52 34.192 190.24 33.904 189.888 33.696C189.536 33.488 189.136 33.384 188.688 33.384C188.24 33.384 187.836 33.488 187.476 33.696C187.124 33.904 186.844 34.192 186.636 34.56C186.436 34.928 186.336 35.356 186.336 35.844C186.336 36.332 186.436 36.764 186.636 37.14C186.844 37.508 187.124 37.796 187.476 38.004C187.836 38.204 188.24 38.304 188.688 38.304ZM193.362 39V32.7H194.214V37.704L198.426 32.7H199.182V39H198.33V33.984L194.13 39H193.362ZM205.332 39V36.732L205.488 36.912H203.352C202.544 36.912 201.912 36.736 201.456 36.384C201 36.032 200.772 35.52 200.772 34.848C200.772 34.128 201.016 33.592 201.504 33.24C201.992 32.88 202.644 32.7 203.46 32.7H206.112V39H205.332ZM200.724 39L202.452 36.576H203.34L201.648 39H200.724ZM205.332 36.48V33.192L205.488 33.444H203.484C202.9 33.444 202.444 33.556 202.116 33.78C201.796 34.004 201.636 34.368 201.636 34.872C201.636 35.808 202.232 36.276 203.424 36.276H205.488L205.332 36.48Z" fill="white"/>
<defs>
<clipPath id="clip0_1_297">
<rect width="204" height="30.0536" fill="white"/>
</clipPath>
</defs>
</svg>
