<svg width="71" height="71" viewBox="0 0 71 71" fill="none" xmlns="http://www.w3.org/2000/svg">
<g opacity="0.1" clip-path="url(#clip0_20_266)">
<path d="M65.0371 0.277344H5.96289C2.82891 0.277344 0.277344 2.82891 0.277344 5.96289V65.0371C0.277344 68.1711 2.82891 70.7227 5.96289 70.7227H65.0371C68.1711 70.7227 70.7227 68.1711 70.7227 65.0371V5.96289C70.7227 2.82891 68.1711 0.277344 65.0371 0.277344ZM5.96289 2.55156H65.0371C66.923 2.55156 68.4484 4.07695 68.4484 5.96289V18.4572H2.55156V5.96289C2.55156 4.07695 4.07695 2.55156 5.96289 2.55156ZM65.0371 68.4484H5.96289C4.07695 68.4484 2.55156 66.923 2.55156 65.0371V20.7314H68.4484V65.0371C68.4484 66.923 66.923 68.4484 65.0371 68.4484Z" fill="#3C3D3E"/>
<path d="M15.0459 5.96289H5.96289V15.0459H15.0459V5.96289ZM12.7717 12.7717H8.23711V8.23711H12.7855V12.7717H12.7717Z" fill="#3C3D3E"/>
<path d="M27.5402 5.96289H18.4572V15.0459H27.5402V5.96289ZM25.2799 12.7717H20.7314V8.23711H25.2799V12.7717Z" fill="#3C3D3E"/>
<path d="M65.0371 5.96289H30.9515V15.0459H65.0371V5.96289ZM62.7629 12.7717H33.2258V8.23711H62.7629V12.7717Z" fill="#3C3D3E"/>
<path d="M42.3226 9.36035H44.5968V11.6346H42.3226V9.36035Z" fill="#3C3D3E"/>
<path d="M46.8572 9.36035H49.1315V11.6346H46.8572V9.36035Z" fill="#3C3D3E"/>
<path d="M51.4056 9.36035H53.6799V11.6346H51.4056V9.36035Z" fill="#3C3D3E"/>
<path d="M37.7742 26.2922V24.1428H35.5V26.2922C26.2783 26.8608 18.901 34.2381 18.3324 43.4598H16.183V45.734H18.3324C18.901 54.9557 26.2783 62.3331 35.5 62.9016V65.0372H37.7742V62.8877C46.9959 62.3192 54.3732 54.9418 54.9418 45.7202H57.0912V43.4459H54.9418C54.3732 34.2381 46.982 26.8608 37.7742 26.2922ZM52.6675 43.4598H49.5613C49.0205 37.2057 44.0283 32.2274 37.7742 31.6727V28.5665C45.734 29.1211 52.099 35.4862 52.6675 43.4598ZM36.6371 55.2885C30.7297 55.2885 25.9316 50.4905 25.9316 44.5831C25.9316 38.6756 30.7297 33.8776 36.6371 33.8776C42.5445 33.8776 47.3426 38.6756 47.3426 44.5831C47.3426 50.4905 42.5445 55.2885 36.6371 55.2885ZM35.5 28.5665V31.6727C29.2459 32.2135 24.2676 37.2057 23.7129 43.4598H20.6066C21.1613 35.4862 27.5402 29.1211 35.5 28.5665ZM20.6066 45.7202H23.7129C24.2537 51.9743 29.2459 56.9526 35.5 57.5073V60.6135C27.5402 60.0588 21.1613 53.6938 20.6066 45.7202ZM37.7742 60.6135V57.5073C44.0283 56.9665 49.0066 51.9743 49.5613 45.7202H52.6675C52.099 53.6938 45.734 60.0588 37.7742 60.6135Z" fill="#3C3D3E"/>
<path d="M36.6371 40.0483C34.1272 40.0483 32.0887 42.0868 32.0887 44.5968C32.0887 47.1067 34.1272 49.1452 36.6371 49.1452C39.1471 49.1452 41.1856 47.1067 41.1856 44.5968C41.1856 42.0868 39.1471 40.0483 36.6371 40.0483ZM36.6371 46.8571C35.3891 46.8571 34.3629 45.8448 34.3629 44.5829C34.3629 43.3349 35.3891 42.3087 36.6371 42.3087C37.8852 42.3087 38.9113 43.321 38.9113 44.5829C38.9113 45.8448 37.8852 46.8571 36.6371 46.8571Z" fill="#3C3D3E"/>
</g>
<defs>
<clipPath id="clip0_20_266">
<rect width="71" height="71" fill="white"/>
</clipPath>
</defs>
</svg>
