<svg width="79" height="80" viewBox="0 0 79 80" fill="none" xmlns="http://www.w3.org/2000/svg">
<path d="M22.2188 18.7412H9.875C8.89287 18.7412 7.95097 19.1326 7.2565 19.8293C6.56202 20.5259 6.17188 21.4708 6.17188 22.456V34.8387C6.17188 35.8239 6.56202 36.7688 7.2565 37.4655C7.95097 38.1621 8.89287 38.5535 9.875 38.5535H22.2188C23.2009 38.5535 24.1428 38.1621 24.8373 37.4655C25.5317 36.7688 25.9219 35.8239 25.9219 34.8387V22.456C25.9219 21.4708 25.5317 20.5259 24.8373 19.8293C24.1428 19.1326 23.2009 18.7412 22.2188 18.7412ZM23.4531 34.8387C23.4531 35.1671 23.3231 35.4821 23.0916 35.7143C22.8601 35.9465 22.5461 36.077 22.2188 36.077H9.875C9.54762 36.077 9.23366 35.9465 9.00217 35.7143C8.77068 35.4821 8.64062 35.1671 8.64062 34.8387V22.456C8.64062 22.1276 8.77068 21.8126 9.00217 21.5804C9.23366 21.3482 9.54762 21.2177 9.875 21.2177H22.2188C22.5461 21.2177 22.8601 21.3482 23.0916 21.5804C23.3231 21.8126 23.4531 22.1276 23.4531 22.456V34.8387Z" fill="#3C3D3E" fill-opacity="0.1"/>
<path d="M22.2188 43.5066H9.875C8.89287 43.5066 7.95097 43.898 7.2565 44.5946C6.56202 45.2913 6.17188 46.2362 6.17188 47.2214V59.6041C6.17188 60.5893 6.56202 61.5342 7.2565 62.2308C7.95097 62.9275 8.89287 63.3189 9.875 63.3189H22.2188C23.2009 63.3189 24.1428 62.9275 24.8373 62.2308C25.5317 61.5342 25.9219 60.5893 25.9219 59.6041V47.2214C25.9219 46.2362 25.5317 45.2913 24.8373 44.5946C24.1428 43.898 23.2009 43.5066 22.2188 43.5066ZM23.4531 59.6041C23.4531 59.9325 23.3231 60.2474 23.0916 60.4797C22.8601 60.7119 22.5461 60.8423 22.2188 60.8423H9.875C9.54762 60.8423 9.23366 60.7119 9.00217 60.4797C8.77068 60.2474 8.64062 59.9325 8.64062 59.6041V47.2214C8.64062 46.893 8.77068 46.578 9.00217 46.3458C9.23366 46.1136 9.54762 45.9831 9.875 45.9831H22.2188C22.5461 45.9831 22.8601 46.1136 23.0916 46.3458C23.3231 46.578 23.4531 46.893 23.4531 47.2214V59.6041Z" fill="#3C3D3E" fill-opacity="0.1"/>
<path d="M33.3281 23.6943H58.0156V26.1709H33.3281V23.6943Z" fill="#3C3D3E" fill-opacity="0.1"/>
<path d="M60.4844 23.6943H65.4219V26.1709H60.4844V23.6943Z" fill="#3C3D3E" fill-opacity="0.1"/>
<path d="M38.2656 7.59692H65.4219V10.0735H38.2656V7.59692Z" fill="#3C3D3E" fill-opacity="0.1"/>
<path d="M45.6719 33.6006C43.2305 33.6006 40.844 34.3268 38.8141 35.6874C36.7841 37.0481 35.202 38.982 34.2677 41.2446C33.3335 43.5073 33.089 45.997 33.5653 48.399C34.0416 50.801 35.2172 53.0074 36.9435 54.7391C38.6698 56.4709 40.8693 57.6502 43.2637 58.128C45.6582 58.6058 48.1401 58.3606 50.3956 57.4234C52.6512 56.4862 54.579 54.899 55.9353 52.8627C57.2917 50.8264 58.0156 48.4323 58.0156 45.9833C58.012 42.7003 56.7104 39.5528 54.3963 37.2314C52.0821 34.9099 48.9445 33.6042 45.6719 33.6006ZM45.6719 55.8894C43.7188 55.8894 41.8096 55.3084 40.1856 54.2199C38.5617 53.1314 37.296 51.5843 36.5486 49.7742C35.8012 47.9641 35.6056 45.9723 35.9866 44.0507C36.3677 42.1291 37.3082 40.364 38.6892 38.9786C40.0702 37.5932 41.8298 36.6497 43.7454 36.2675C45.6609 35.8852 47.6465 36.0814 49.4509 36.8312C51.2553 37.581 52.7976 38.8507 53.8826 40.4797C54.9677 42.1088 55.5469 44.024 55.5469 45.9833C55.5439 48.6096 54.5026 51.1276 52.6513 52.9847C50.8 54.8418 48.29 55.8865 45.6719 55.8894Z" fill="#3C3D3E" fill-opacity="0.1"/>
<path d="M72.5627 66.2548C72.7297 65.7041 72.819 65.1327 72.8281 64.5572V7.59686C72.8262 5.95541 72.1753 4.38177 71.0183 3.22109C69.8612 2.06042 68.2925 1.40748 66.6562 1.40552H7.40625C5.76997 1.40748 4.20127 2.06042 3.04424 3.22109C1.88721 4.38177 1.23634 5.95541 1.23438 7.59686V64.5572C1.23634 66.1986 1.88721 67.7723 3.04424 68.9329C4.20127 70.0936 5.76997 70.7465 7.40625 70.7485H63.6765L69.699 76.79C70.1368 77.2347 70.6579 77.5882 71.2324 77.8301C71.8069 78.072 72.4234 78.1975 73.0465 78.1994C73.6695 78.2013 74.2868 78.0797 74.8628 77.8413C75.4388 77.603 75.9621 77.2528 76.4026 76.8108C76.8431 76.3688 77.1922 75.8438 77.4296 75.2659C77.6671 74.6881 77.7883 74.0688 77.7862 73.4438C77.7842 72.8188 77.659 72.2004 77.4177 71.6241C77.1765 71.0479 76.8241 70.5251 76.3807 70.086L72.5627 66.2548ZM7.40625 3.88205H66.6562C67.6384 3.88205 68.5803 4.27343 69.2747 4.97009C69.9692 5.66675 70.3594 6.61163 70.3594 7.59686V13.7882H3.70312V7.59686C3.70312 6.61163 4.09327 5.66675 4.78775 4.97009C5.48222 4.27343 6.42412 3.88205 7.40625 3.88205ZM7.40625 68.272C6.42412 68.272 5.48222 67.8806 4.78775 67.1839C4.09327 66.4873 3.70312 65.5424 3.70312 64.5572V16.2647H70.3594V64.0445L65.3157 58.985L66.2946 58.003C66.526 57.7708 66.656 57.4559 66.656 57.1276C66.656 56.7992 66.526 56.4843 66.2946 56.2521L61.9113 51.855C63.2589 48.1324 63.3006 44.06 62.0295 40.3104C60.7584 36.5607 58.2505 33.3581 54.92 31.2313C51.5895 29.1046 47.6355 28.1809 43.711 28.6127C39.7864 29.0446 36.1261 30.8063 33.3344 33.6068C30.5427 36.4073 28.7866 40.0792 28.3561 44.0161C27.9255 47.9529 28.8463 51.9194 30.9664 55.2604C33.0865 58.6015 36.2791 61.1173 40.0169 62.3924C43.7548 63.6675 47.8143 63.6257 51.5253 62.2738L55.9085 66.6709C56.14 66.903 56.4539 67.0334 56.7812 67.0334C57.1086 67.0334 57.4225 66.903 57.654 66.6709L58.6328 65.6889L61.2077 68.272H7.40625ZM56.7812 64.0445L53.9422 61.1965C56.8519 59.5983 59.2449 57.1982 60.8386 54.2796L63.6777 57.1276L56.7812 64.0445ZM45.6719 60.8424C42.7422 60.8424 39.8784 59.9709 37.4425 58.3381C35.0066 56.7054 33.108 54.3847 31.9869 51.6695C30.8658 48.9544 30.5725 45.9667 31.144 43.0843C31.7155 40.2019 33.1263 37.5542 35.1979 35.4761C37.2694 33.398 39.9088 31.9828 42.7821 31.4095C45.6554 30.8361 48.6337 31.1304 51.3404 32.255C54.047 33.3797 56.3604 35.2842 57.988 37.7278C59.6156 40.1714 60.4844 43.0443 60.4844 45.9832C60.4801 49.9228 58.9182 53.6998 56.1412 56.4855C53.3642 59.2712 49.5991 60.8381 45.6719 60.8424ZM73.0392 75.7016C72.7427 75.7023 72.4491 75.6442 72.1751 75.5305C71.9012 75.4168 71.6524 75.2498 71.4432 75.0391L60.3782 63.938L63.5703 60.7359L74.6365 71.837C74.9517 72.1538 75.1663 72.5573 75.2531 72.9964C75.3398 73.4356 75.2949 73.8907 75.124 74.3042C74.9531 74.7177 74.6638 75.0712 74.2927 75.3199C73.9217 75.5686 73.4855 75.7014 73.0392 75.7016Z" fill="#3C3D3E" fill-opacity="0.1"/>
<path d="M8.64062 7.59692H11.1094V10.0735H8.64062V7.59692Z" fill="#3C3D3E" fill-opacity="0.1"/>
<path d="M13.5781 7.59692H16.0469V10.0735H13.5781V7.59692Z" fill="#3C3D3E" fill-opacity="0.1"/>
<path d="M18.5156 7.59692H20.9844V10.0735H18.5156V7.59692Z" fill="#3C3D3E" fill-opacity="0.1"/>
<path d="M23.4531 7.59692H25.9219V10.0735H23.4531V7.59692Z" fill="#3C3D3E" fill-opacity="0.1"/>
</svg>
