<svg width="81" height="82" viewBox="0 0 81 82" fill="none" xmlns="http://www.w3.org/2000/svg">
<g opacity="0.1">
<path fill-rule="evenodd" clip-rule="evenodd" d="M8.81255 5.22974H8.86444H72.1457C74.2428 5.22974 75.9426 6.93483 75.9426 9.03859V72.5194C75.9426 74.6232 74.2428 76.3283 72.1457 76.3283H8.86444C6.76603 76.3283 5.06756 74.6232 5.06756 72.5194V19.3047C5.06377 19.2679 5.0625 19.2323 5.0625 19.1955V9.03859C5.0625 6.95007 6.73692 5.25513 8.81255 5.22974ZM73.4113 20.4651H7.59881V72.5194C7.59881 73.2202 8.16455 73.789 8.86444 73.789H72.1457C72.8443 73.789 73.4113 73.2202 73.4113 72.5194V20.4651ZM12.6562 41.9534V64.9017C12.6562 67.0055 14.356 68.7106 16.4531 68.7106H67.0781C67.7767 68.7106 68.3438 68.1418 68.3438 67.4409C68.3438 66.7401 67.7767 66.1713 67.0781 66.1713H16.4531C15.7545 66.1713 15.1875 65.6025 15.1875 64.9017V41.9534C15.1875 41.2526 14.6205 40.6838 13.9219 40.6838C13.2233 40.6838 12.6562 41.2526 12.6562 41.9534ZM58.2188 25.5436C58.2744 25.5436 58.3289 25.5474 58.3833 25.5538C58.6516 25.588 58.9098 25.7086 59.1161 25.9156C59.3819 26.1822 59.5046 26.5377 59.4844 26.8856V29.3524C59.4844 30.0533 58.9174 30.6221 58.2188 30.6221C57.6771 30.6221 57.2138 30.2805 57.0341 29.7994L55.3192 31.5197L55.3179 31.521C55.5546 32.0174 55.6875 32.5735 55.6875 33.1613C55.6875 35.2638 53.9865 36.9701 51.8906 36.9701C51.3046 36.9701 50.749 36.8368 50.2542 36.5981L48.9885 37.8678C49.2265 38.3642 49.3594 38.9215 49.3594 39.5094C49.3594 41.6119 47.6584 43.3182 45.5625 43.3182C44.9765 43.3182 44.4209 43.1849 43.926 42.9462L42.6604 44.2158C42.8984 44.7123 43.0312 45.2696 43.0312 45.8575C43.0312 47.9599 41.3302 49.6663 39.2344 49.6663C38.6484 49.6663 38.0928 49.533 37.5979 49.2943L36.3323 50.5639C36.5702 51.0603 36.7031 51.6177 36.7031 52.2055C36.7031 54.308 35.0021 56.0144 32.9062 56.0144C32.3203 56.0144 31.7647 55.8811 31.2698 55.6424L30.0042 56.912C30.2421 57.4084 30.375 57.9658 30.375 58.5536C30.375 60.6561 28.674 62.3625 26.5781 62.3625C25.9921 62.3625 25.4365 62.2292 24.9417 61.9905L23.676 63.2601C23.1825 63.7552 22.38 63.7552 21.8865 63.2601C21.3929 62.7649 21.3929 61.96 21.8865 61.4649L23.1521 60.1952C22.9141 59.6988 22.7812 59.1415 22.7812 58.5536C22.7812 56.4511 24.4823 54.7448 26.5781 54.7448C27.1641 54.7448 27.7197 54.8781 28.2146 55.1168L29.4802 53.8472C29.2423 53.3507 29.1094 52.7934 29.1094 52.2055C29.1094 50.1031 30.8104 48.3967 32.9062 48.3967C33.4922 48.3967 34.0478 48.53 34.5427 48.7687L35.8083 47.4991C35.5704 47.0027 35.4375 46.4453 35.4375 45.8575C35.4375 43.755 37.1385 42.0486 39.2344 42.0486C39.8204 42.0486 40.376 42.1819 40.8708 42.4206L42.1365 41.151C41.8985 40.6546 41.7656 40.0972 41.7656 39.5094C41.7656 37.4069 43.4666 35.7005 45.5625 35.7005C46.1485 35.7005 46.7041 35.8338 47.199 36.0725L48.4646 34.8029C48.2266 34.3065 48.0938 33.7491 48.0938 33.1613C48.0938 31.0588 49.7948 29.3524 51.8906 29.3524C52.4779 29.3524 53.0335 29.4858 53.5283 29.7244L55.2445 28.0028C54.7649 27.8226 54.4219 27.3579 54.4219 26.8132C54.4219 26.1124 54.9889 25.5436 55.6875 25.5436H58.2188ZM26.5781 57.284C27.2768 57.284 27.8438 57.8528 27.8438 58.5536C27.8438 59.2545 27.2768 59.8232 26.5781 59.8232C25.8795 59.8232 25.3125 59.2545 25.3125 58.5536C25.3125 57.8528 25.8795 57.284 26.5781 57.284ZM32.9062 50.9359C33.6049 50.9359 34.1719 51.5047 34.1719 52.2055C34.1719 52.9064 33.6049 53.4752 32.9062 53.4752C32.2076 53.4752 31.6406 52.9064 31.6406 52.2055C31.6406 51.5047 32.2076 50.9359 32.9062 50.9359ZM39.2344 44.5878C39.933 44.5878 40.5 45.1566 40.5 45.8575C40.5 46.5583 39.933 47.1271 39.2344 47.1271C38.5358 47.1271 37.9688 46.5583 37.9688 45.8575C37.9688 45.1566 38.5358 44.5878 39.2344 44.5878ZM45.5625 38.2398C46.2611 38.2398 46.8281 38.8086 46.8281 39.5094C46.8281 40.2102 46.2611 40.779 45.5625 40.779C44.8639 40.779 44.2969 40.2102 44.2969 39.5094C44.2969 38.8086 44.8639 38.2398 45.5625 38.2398ZM12.6562 26.8132V36.8749C12.6562 37.5758 13.2233 38.1445 13.9219 38.1445C14.6205 38.1445 15.1875 37.5758 15.1875 36.8749V26.8132C15.1875 26.1124 14.6205 25.5436 13.9219 25.5436C13.2233 25.5436 12.6562 26.1124 12.6562 26.8132ZM51.8906 31.8917C52.5892 31.8917 53.1562 32.4605 53.1562 33.1613C53.1562 33.8621 52.5892 34.4309 51.8906 34.4309C51.192 34.4309 50.625 33.8621 50.625 33.1613C50.625 32.4605 51.192 31.8917 51.8906 31.8917ZM72.152 7.76897H72.1457H8.86444C8.16455 7.76897 7.59881 8.33776 7.59881 9.03859V17.9259H73.4062V9.03859C73.4062 8.34157 72.8456 7.77532 72.152 7.76897ZM67.0781 10.3082C68.4754 10.3082 69.6094 11.4458 69.6094 12.8474C69.6094 14.2491 68.4754 15.3867 67.0781 15.3867C65.6809 15.3867 64.5469 14.2491 64.5469 12.8474C64.5469 11.4458 65.6809 10.3082 67.0781 10.3082ZM59.4844 10.3082C60.8816 10.3082 62.0156 11.4458 62.0156 12.8474C62.0156 14.2491 60.8816 15.3867 59.4844 15.3867C58.0871 15.3867 56.9531 14.2491 56.9531 12.8474C56.9531 11.4458 58.0871 10.3082 59.4844 10.3082ZM51.8906 10.3082C53.2879 10.3082 54.4219 11.4458 54.4219 12.8474C54.4219 14.2491 53.2879 15.3867 51.8906 15.3867C50.4934 15.3867 49.3594 14.2491 49.3594 12.8474C49.3594 11.4458 50.4934 10.3082 51.8906 10.3082ZM12.6562 14.1171H44.2969C44.9955 14.1171 45.5625 13.5483 45.5625 12.8474C45.5625 12.1466 44.9955 11.5778 44.2969 11.5778H12.6562C11.9576 11.5778 11.3906 12.1466 11.3906 12.8474C11.3906 13.5483 11.9576 14.1171 12.6562 14.1171Z" fill="#3C3D3E"/>
<path d="M18.2188 15.7158H5.875C4.89287 15.7158 3.95097 16.1072 3.2565 16.8039C2.56202 17.5005 2.17188 18.4454 2.17188 19.4306V31.8133C2.17188 32.7985 2.56202 33.7434 3.2565 34.4401C3.95097 35.1367 4.89287 35.5281 5.875 35.5281H18.2188C19.2009 35.5281 20.1428 35.1367 20.8373 34.4401C21.5317 33.7434 21.9219 32.7985 21.9219 31.8133V19.4306C21.9219 18.4454 21.5317 17.5005 20.8373 16.8039C20.1428 16.1072 19.2009 15.7158 18.2188 15.7158ZM19.4531 31.8133C19.4531 32.1417 19.3231 32.4567 19.0916 32.6889C18.8601 32.9211 18.5461 33.0516 18.2188 33.0516H5.875C5.54762 33.0516 5.23366 32.9211 5.00217 32.6889C4.77068 32.4567 4.64062 32.1417 4.64062 31.8133V19.4306C4.64062 19.1022 4.77068 18.7873 5.00217 18.555C5.23366 18.3228 5.54762 18.1924 5.875 18.1924H18.2188C18.5461 18.1924 18.8601 18.3228 19.0916 18.555C19.3231 18.7873 19.4531 19.1022 19.4531 19.4306V31.8133Z" fill="#3C3D3E" fill-opacity="0.1"/>
<path d="M18.2188 40.4812H5.875C4.89287 40.4812 3.95097 40.8726 3.2565 41.5692C2.56202 42.2659 2.17188 43.2108 2.17188 44.196V56.5787C2.17188 57.5639 2.56202 58.5088 3.2565 59.2054C3.95097 59.9021 4.89287 60.2935 5.875 60.2935H18.2188C19.2009 60.2935 20.1428 59.9021 20.8373 59.2054C21.5317 58.5088 21.9219 57.5639 21.9219 56.5787V44.196C21.9219 43.2108 21.5317 42.2659 20.8373 41.5692C20.1428 40.8726 19.2009 40.4812 18.2188 40.4812ZM19.4531 56.5787C19.4531 56.9071 19.3231 57.222 19.0916 57.4543C18.8601 57.6865 18.5461 57.8169 18.2188 57.8169H5.875C5.54762 57.8169 5.23366 57.6865 5.00217 57.4543C4.77068 57.222 4.64062 56.9071 4.64062 56.5787V44.196C4.64062 43.8676 4.77068 43.5526 5.00217 43.3204C5.23366 43.0882 5.54762 42.9577 5.875 42.9577H18.2188C18.5461 42.9577 18.8601 43.0882 19.0916 43.3204C19.3231 43.5526 19.4531 43.8676 19.4531 44.196V56.5787Z" fill="#3C3D3E" fill-opacity="0.1"/>
<path d="M29.3281 20.6689H54.0156V23.1455H29.3281V20.6689Z" fill="#3C3D3E" fill-opacity="0.1"/>
<path d="M56.4844 20.6689H61.4219V23.1455H56.4844V20.6689Z" fill="#3C3D3E" fill-opacity="0.1"/>
<path d="M34.2656 4.57153H61.4219V7.04807H34.2656V4.57153Z" fill="#3C3D3E" fill-opacity="0.1"/>
<path d="M41.6719 30.5752C39.2305 30.5752 36.844 31.3014 34.8141 32.6621C32.7841 34.0227 31.202 35.9566 30.2677 38.2192C29.3335 40.4819 29.089 42.9716 29.5653 45.3736C30.0416 47.7756 31.2172 49.982 32.9435 51.7137C34.6698 53.4455 36.8693 54.6248 39.2637 55.1026C41.6582 55.5804 44.1401 55.3352 46.3956 54.398C48.6512 53.4608 50.579 51.8736 51.9353 49.8373C53.2917 47.801 54.0156 45.4069 54.0156 42.9579C54.012 39.6749 52.7104 36.5274 50.3963 34.206C48.0821 31.8846 44.9445 30.5788 41.6719 30.5752ZM41.6719 52.864C39.7188 52.864 37.8096 52.283 36.1856 51.1945C34.5617 50.106 33.296 48.5589 32.5486 46.7488C31.8012 44.9387 31.6056 42.9469 31.9866 41.0253C32.3677 39.1037 33.3082 37.3386 34.6892 35.9532C36.0702 34.5678 37.8298 33.6243 39.7454 33.2421C41.6609 32.8598 43.6465 33.056 45.4509 33.8058C47.2553 34.5556 48.7976 35.8253 49.8826 37.4543C50.9677 39.0834 51.5469 40.9986 51.5469 42.9579C51.5439 45.5842 50.5026 48.1022 48.6513 49.9593C46.8 51.8164 44.29 52.8611 41.6719 52.864Z" fill="#3C3D3E" fill-opacity="0.1"/>
<path d="M4.64062 4.57153H7.10938V7.04807H4.64062V4.57153Z" fill="#3C3D3E" fill-opacity="0.1"/>
<path d="M9.57812 4.57153H12.0469V7.04807H9.57812V4.57153Z" fill="#3C3D3E" fill-opacity="0.1"/>
<path d="M14.5156 4.57153H16.9844V7.04807H14.5156V4.57153Z" fill="#3C3D3E" fill-opacity="0.1"/>
<path d="M19.4531 4.57153H21.9219V7.04807H19.4531V4.57153Z" fill="#3C3D3E" fill-opacity="0.1"/>
</g>
</svg>
