<svg width="70" height="71" viewBox="0 0 70 71" fill="none" xmlns="http://www.w3.org/2000/svg">
<g opacity="0.1" clip-path="url(#clip0_20_120)">
<path d="M5.16696 70.2264H64.833C67.8014 70.2264 70.25 67.7689 70.25 64.7931V5.76162C70.25 2.74342 67.8001 0.328369 64.833 0.328369H5.16696C2.15761 0.328369 -0.25 2.74471 -0.25 5.76162V64.7931C-0.25 67.7676 2.15633 70.2264 5.16696 70.2264ZM1.8903 5.76162C1.8903 3.92627 3.37652 2.47385 5.16696 2.47385H64.833C66.6235 2.47385 68.1097 3.92627 68.1097 5.76162V64.7931C68.1097 66.5892 66.6216 68.0809 64.833 68.0809H5.16696C3.37841 68.0809 1.8903 66.5892 1.8903 64.7931V5.76162Z" fill="#3C3D3E" stroke="#3C3D3E" stroke-width="0.5"/>
<path d="M0.820156 14.4861H69.1799C69.5168 14.4861 69.7865 14.3533 69.9688 14.1424C70.1466 13.9366 70.2295 13.6704 70.2295 13.4133C70.2295 13.1563 70.1466 12.8901 69.9688 12.6842C69.7865 12.4733 69.5168 12.3406 69.1799 12.3406H0.820156C0.483243 12.3406 0.213474 12.4733 0.0312428 12.6842C-0.146565 12.8901 -0.229492 13.1563 -0.229492 13.4133C-0.229492 13.6704 -0.146565 13.9366 0.0312428 14.1424C0.213474 14.3533 0.483243 14.4861 0.820156 14.4861Z" fill="#3C3D3E" stroke="#3C3D3E" stroke-width="0.5"/>
<path d="M35.5359 0.65366L35.5354 0.654179L24.2197 12.7047C23.5603 13.3708 24.0759 14.486 25.0146 14.486C25.2883 14.486 25.5564 14.3756 25.7658 14.1656L25.7659 14.1657L25.771 14.1603L37.0886 2.10766C37.0887 2.10754 37.0888 2.10742 37.0889 2.1073C37.3204 1.86207 37.4115 1.57588 37.3851 1.29911C37.3593 1.02862 37.2236 0.786519 37.0365 0.611753C36.8493 0.436959 36.5984 0.317907 36.3265 0.309331C36.0484 0.300558 35.7675 0.408382 35.5359 0.65366Z" fill="#3C3D3E" stroke="#3C3D3E" stroke-width="0.5"/>
<path d="M39.1213 8.47995H63.5208C63.8577 8.47995 64.1275 8.34721 64.3097 8.13628C64.4875 7.93047 64.5704 7.66427 64.5704 7.40721C64.5704 7.15015 64.4875 6.88395 64.3097 6.67814C64.1275 6.46721 63.8577 6.33447 63.5208 6.33447H39.1213C38.7774 6.33447 38.5008 6.46462 38.3124 6.67463C38.1279 6.88021 38.0409 7.14763 38.0409 7.40721C38.0409 7.66679 38.1279 7.93422 38.3124 8.13979C38.5008 8.3498 38.7774 8.47995 39.1213 8.47995Z" fill="#3C3D3E" stroke="#3C3D3E" stroke-width="0.5"/>
<path d="M3.23565 6.21419C3.23565 6.5127 3.23368 6.78844 3.23186 7.04245C3.22779 7.60934 3.2245 8.06806 3.24569 8.43026C3.27588 8.94643 3.35699 9.35667 3.63381 9.62734C3.90949 9.89689 4.32266 9.97208 4.83963 9.99843C5.18375 10.016 5.61482 10.012 6.14132 10.0073C6.41846 10.0047 6.72205 10.002 7.05331 10.002C7.8014 10.002 8.45153 9.40145 8.45153 8.60014C8.45153 8.34909 8.46107 8.09147 8.47083 7.82803C8.47611 7.68523 8.48147 7.54071 8.4854 7.3946C8.49634 6.98777 8.49576 6.57665 8.44394 6.21006C8.39254 5.84638 8.28682 5.49539 8.06302 5.23305C7.82923 4.95902 7.49337 4.81236 7.05331 4.81236C6.79543 4.81236 6.53192 4.80271 6.26356 4.79288C6.11967 4.78761 5.97439 4.78229 5.82783 4.77838C5.4166 4.76741 5.00287 4.76799 4.6348 4.81996C4.26962 4.87151 3.91807 4.97755 3.65564 5.20217C3.38157 5.43674 3.23565 5.77345 3.23565 6.21419ZM6.31122 6.95784V7.85649H5.37596V6.95784H6.31122Z" fill="#3C3D3E" stroke="#3C3D3E" stroke-width="0.5"/>
<path d="M10.8631 6.21419C10.8631 6.5127 10.8611 6.78844 10.8593 7.04245C10.8552 7.60934 10.8519 8.06806 10.8731 8.43026C10.9033 8.94643 10.9844 9.35667 11.2612 9.62734C11.5369 9.89689 11.9501 9.97208 12.467 9.99843C12.8112 10.016 13.2422 10.012 13.7687 10.0073C14.0459 10.0047 14.3495 10.002 14.6807 10.002C15.4288 10.002 16.0789 9.40145 16.0789 8.60014C16.0789 8.34909 16.0885 8.09147 16.0982 7.82803C16.1035 7.68523 16.1089 7.54071 16.1128 7.3946C16.1238 6.98777 16.1232 6.57665 16.0714 6.21006C16.0199 5.84638 15.9142 5.49539 15.6904 5.23305C15.4566 4.95902 15.1208 4.81236 14.6807 4.81236C14.4228 4.81236 14.1593 4.80271 13.891 4.79288C13.7471 4.78761 13.6018 4.78229 13.4552 4.77838C13.044 4.76741 12.6303 4.76799 12.2622 4.81996C11.897 4.87151 11.5455 4.97755 11.283 5.20217C11.009 5.43674 10.8631 5.77345 10.8631 6.21419ZM13.9386 6.95784V7.85649H13.0034V6.95784H13.9386Z" fill="#3C3D3E" stroke="#3C3D3E" stroke-width="0.5"/>
<path d="M18.4905 6.21419C18.4905 6.5127 18.4885 6.78844 18.4867 7.04245C18.4826 7.60934 18.4793 8.06806 18.5005 8.43026C18.5307 8.94643 18.6118 9.35667 18.8886 9.62734C19.1643 9.89689 19.5775 9.97208 20.0945 9.99843C20.4386 10.016 20.8696 10.012 21.3961 10.0073C21.6733 10.0047 21.9769 10.002 22.3081 10.002C23.0562 10.002 23.7064 9.40145 23.7064 8.60014C23.7064 8.36319 23.7138 8.12233 23.7215 7.87608C23.7264 7.7173 23.7314 7.55628 23.7345 7.39263C23.7422 6.98532 23.7376 6.57453 23.6831 6.20826C23.6291 5.84505 23.522 5.49544 23.3014 5.23407C23.0707 4.96066 22.7403 4.81236 22.3081 4.81236C22.0503 4.81236 21.7867 4.80271 21.5184 4.79288C21.3745 4.78761 21.2292 4.78229 21.0827 4.77838C20.6714 4.76741 20.2577 4.76799 19.8896 4.81996C19.5244 4.87151 19.1729 4.97755 18.9105 5.20217C18.6364 5.43674 18.4905 5.77345 18.4905 6.21419ZM21.566 6.95784V7.85649H20.6308V6.95784H21.566Z" fill="#3C3D3E" stroke="#3C3D3E" stroke-width="0.5"/>
<path d="M45.0674 32.257H52.8588C53.4487 32.257 53.929 31.7741 53.929 31.1843V23.3271C53.929 22.7373 53.4487 22.2544 52.8588 22.2544C47.9624 22.2544 43.9972 26.2347 43.9972 31.1843C43.9972 31.7741 44.4775 32.257 45.0674 32.257ZM51.7887 24.4776V30.1115H46.2143C46.6651 27.2036 48.9292 24.9315 51.7887 24.4776Z" fill="#3C3D3E" stroke="#3C3D3E" stroke-width="0.5"/>
<path d="M46.7857 33.9817C46.7857 38.8893 50.7501 42.9115 55.6473 42.9115C60.5848 42.9115 64.5499 38.8901 64.5499 33.9817C64.5499 29.0313 60.584 25.0518 55.6473 25.0518C55.0574 25.0518 54.5772 25.5347 54.5772 26.1245V32.9089H47.8559C47.266 32.9089 46.7857 33.3918 46.7857 33.9817ZM55.6473 40.7661C52.3052 40.7661 49.5196 38.2926 49.0039 35.0544H55.6473C56.2372 35.0544 56.7175 34.5715 56.7175 33.9817V27.2755C59.9427 27.7931 62.4096 30.5869 62.4096 33.9817C62.4096 37.7122 59.4033 40.7661 55.6473 40.7661Z" fill="#3C3D3E" stroke="#3C3D3E" stroke-width="0.5"/>
<path d="M54.8915 34.7294L54.8914 34.7294L54.8962 34.7342L60.4322 40.2877C60.6416 40.4977 60.9097 40.608 61.1834 40.608C62.1536 40.608 62.6179 39.4273 61.9345 38.7417L56.4395 33.2294C56.1978 32.9869 55.9123 32.8825 55.6317 32.8965C55.357 32.9102 55.1073 33.0362 54.9234 33.2175C54.7395 33.3988 54.6101 33.6462 54.5888 33.9187C54.5672 34.1969 54.66 34.4843 54.8915 34.7294Z" fill="#3C3D3E" stroke="#3C3D3E" stroke-width="0.5"/>
<path d="M11.7282 60.9296H49.1681C49.505 60.9296 49.7748 60.7968 49.957 60.5859C50.1348 60.3801 50.2178 60.1139 50.2178 59.8568C50.2178 59.5998 50.1348 59.3336 49.957 59.1278C49.7748 58.9168 49.505 58.7841 49.1681 58.7841H12.7983V33.4058C12.7983 33.0616 12.6689 32.7845 12.4596 32.5954C12.2545 32.4103 11.9875 32.3228 11.7282 32.3228C11.4688 32.3228 11.2018 32.4103 10.9968 32.5954C10.7874 32.7845 10.658 33.0616 10.658 33.4058V59.8568C10.658 60.4467 11.1383 60.9296 11.7282 60.9296Z" fill="#3C3D3E" stroke="#3C3D3E" stroke-width="0.5"/>
<path d="M14.9035 34.5094L14.9036 34.5093L14.8978 34.5035C14.459 34.0686 14.091 33.6878 13.7748 33.3602C13.7614 33.3463 13.7481 33.3325 13.7349 33.3188C13.4373 33.0103 13.1834 32.7471 12.9619 32.5341C12.7317 32.3125 12.5255 32.1342 12.3299 32.011C12.132 31.8862 11.9304 31.8086 11.7128 31.8086C11.4951 31.8086 11.2939 31.8864 11.0969 32.0114C10.9024 32.1349 10.6981 32.3135 10.4703 32.535C10.2513 32.7482 10.0005 33.0114 9.70648 33.3199C9.69342 33.3336 9.68027 33.3474 9.66703 33.3613C9.35473 33.6889 8.99115 34.0696 8.55757 34.5046C7.87416 35.1901 8.33848 36.3709 9.30874 36.3709C9.53806 36.3709 9.77155 36.239 9.97185 36.0939C10.1837 35.9404 10.4098 35.7329 10.633 35.5117C10.839 35.3074 11.0491 35.0847 11.2491 34.8727C11.2666 34.8541 11.284 34.8357 11.3013 34.8173C11.4501 34.6596 11.5921 34.5099 11.7241 34.3769L13.3535 36.0485L13.3534 36.0487L13.3603 36.0553C13.6048 36.2876 13.8917 36.3809 14.1703 36.3592C14.4429 36.3379 14.6905 36.2081 14.8732 36.0248C15.0558 35.8416 15.185 35.5935 15.2061 35.3207C15.2278 35.042 15.135 34.7546 14.9035 34.5094Z" fill="#3C3D3E" stroke="#3C3D3E" stroke-width="0.5"/>
<path d="M47.8279 63.0362L47.8279 63.0363L47.8289 63.0352C48.2623 62.5953 48.6424 62.2269 48.9698 61.911C49.0035 61.8785 49.0367 61.8464 49.0694 61.8149C49.3528 61.5418 49.5967 61.3066 49.7967 61.1004C50.0189 60.8713 50.1983 60.6666 50.3229 60.4726C50.4489 60.2764 50.5286 60.076 50.5305 59.8588C50.5323 59.6413 50.4556 59.4401 50.3312 59.2427C50.2085 59.048 50.0303 58.8427 49.8085 58.6134C49.5955 58.3931 49.3319 58.1402 49.0224 57.8432C49.0081 57.8296 48.9938 57.8159 48.9794 57.8021C48.65 57.486 48.2666 57.1174 47.8279 56.6773C47.4021 56.2502 46.7513 56.2502 46.3256 56.6773C46.0677 56.936 45.9741 57.233 46.0318 57.5474C46.0853 57.8389 46.2641 58.1174 46.4796 58.3764C46.6985 58.6392 46.9795 58.9098 47.2721 59.1827C47.3394 59.2456 47.4074 59.3085 47.4757 59.3718C47.648 59.5314 47.8224 59.693 47.9933 59.8584L46.3289 61.5281C45.6246 62.1863 46.1268 63.3566 47.0767 63.3566C47.3504 63.3566 47.6185 63.2463 47.8279 63.0362Z" fill="#3C3D3E" stroke="#3C3D3E" stroke-width="0.5"/>
<path d="M16.6491 60.9296H21.734C22.3239 60.9296 22.8042 60.4467 22.8042 59.8569V42.9084C22.8042 42.3186 22.3239 41.8357 21.734 41.8357H16.6491C16.0592 41.8357 15.5789 42.3186 15.5789 42.9084V59.8569C15.5789 60.4467 16.0592 60.9296 16.6491 60.9296ZM20.6639 43.9812V58.7841H17.7192V43.9812H20.6639Z" fill="#3C3D3E" stroke="#3C3D3E" stroke-width="0.5"/>
<path d="M27.3521 60.9295H32.437C33.0269 60.9295 33.5072 60.4466 33.5072 59.8568V45.2532C33.5072 44.6633 33.0269 44.1804 32.437 44.1804H27.3521C26.7622 44.1804 26.2819 44.6633 26.2819 45.2532V59.8568C26.2819 60.4466 26.7622 60.9295 27.3521 60.9295ZM31.3669 46.367V58.784H28.4222V46.367H31.3669Z" fill="#3C3D3E" stroke="#3C3D3E" stroke-width="0.5"/>
<path d="M38.0551 60.9294H43.181C43.7709 60.9294 44.2512 60.4465 44.2512 59.8567V48.2561C44.2512 47.6663 43.7709 47.1833 43.181 47.1833H38.0551C37.4652 47.1833 36.9849 47.6663 36.9849 48.2561V59.8567C36.9849 60.4465 37.4652 60.9294 38.0551 60.9294ZM42.1109 49.3288V58.784H39.1252V49.3288H42.1109Z" fill="#3C3D3E" stroke="#3C3D3E" stroke-width="0.5"/>
<path d="M43.4855 44.5485L43.5172 44.557H43.5501C44.1888 44.557 44.5633 44.0923 44.6283 43.6102C44.6926 43.1326 44.4586 42.5836 43.8621 42.4204L43.8608 42.42L19.9129 36.0028C19.9128 36.0028 19.9127 36.0028 19.9126 36.0027C19.5806 35.9131 19.2804 35.9683 19.045 36.1246C18.8149 36.2773 18.6637 36.5148 18.5964 36.7656C18.5291 37.0162 18.5412 37.2968 18.6591 37.5436C18.7797 37.7961 19.0046 37.9981 19.329 38.0892L19.329 38.0892L19.332 38.09L43.4855 44.5485Z" fill="#3C3D3E" stroke="#3C3D3E" stroke-width="0.5"/>
<path d="M20.2053 40.2359L20.2092 40.2428L20.2136 40.2493C20.4197 40.5596 20.7818 40.7723 21.1599 40.7723C21.3415 40.7723 21.5066 40.7104 21.6821 40.6224L21.6914 40.6177L21.7003 40.6123C21.997 40.4311 22.1562 40.1793 22.1865 39.879C22.2148 39.5984 22.1275 39.3035 22.0038 39.0228C21.8784 38.7384 21.7011 38.4377 21.5177 38.1392C21.4704 38.0622 21.4228 37.9855 21.3751 37.9088C21.2786 37.7533 21.1823 37.5982 21.09 37.4428L22.8031 36.419C23.0962 36.2519 23.2681 36.0061 23.3244 35.7343C23.3796 35.4679 23.3197 35.197 23.1902 34.9761C23.0606 34.7551 22.8532 34.5701 22.5941 34.4846C22.3294 34.3973 22.0283 34.4198 21.7338 34.5868L21.7337 34.5868L21.7315 34.5881C21.2471 34.8695 20.8262 35.1023 20.4634 35.3028L20.4419 35.3148C20.09 35.5093 19.7895 35.6753 19.5428 35.8245C19.2922 35.976 19.0839 36.1176 18.9262 36.2639C18.7665 36.4122 18.6466 36.5761 18.5918 36.7739C18.537 36.972 18.5558 37.1739 18.618 37.3825C18.6793 37.5882 18.7872 37.815 18.9274 38.0712C19.0697 38.3316 19.2591 38.646 19.4854 39.0217C19.6961 39.3713 19.9387 39.7741 20.2053 40.2359Z" fill="#3C3D3E" stroke="#3C3D3E" stroke-width="0.5"/>
<path d="M5.74106 21.3559H16.6081C16.9519 21.3559 17.2286 21.2258 17.417 21.0158C17.6014 20.8102 17.6885 20.5428 17.6885 20.2832C17.6885 20.0236 17.6014 19.7562 17.417 19.5506C17.2286 19.3406 16.9519 19.2104 16.6081 19.2104H5.74106C5.39723 19.2104 5.12059 19.3406 4.93218 19.5506C4.74774 19.7562 4.66066 20.0236 4.66066 20.2832C4.66066 20.5428 4.74774 20.8102 4.93218 21.0158C5.12059 21.2258 5.39723 21.3559 5.74106 21.3559Z" fill="#3C3D3E" stroke="#3C3D3E" stroke-width="0.5"/>
<path d="M5.74106 26.4568H16.6081C16.9519 26.4568 17.2286 26.3266 17.417 26.1166C17.6014 25.911 17.6885 25.6436 17.6885 25.384C17.6885 25.1244 17.6014 24.857 17.417 24.6514C17.2286 24.4414 16.9519 24.3113 16.6081 24.3113H5.74106C5.39723 24.3113 5.12059 24.4414 4.93218 24.6514C4.74774 24.857 4.66066 25.1244 4.66066 25.384C4.66066 25.6436 4.74774 25.911 4.93218 26.1166C5.12059 26.3266 5.39723 26.4568 5.74106 26.4568Z" fill="#3C3D3E" stroke="#3C3D3E" stroke-width="0.5"/>
<path d="M53.3509 49.946H64.2589C64.5958 49.946 64.8656 49.8133 65.0478 49.6023C65.2256 49.3965 65.3086 49.1303 65.3086 48.8733C65.3086 48.6162 65.2256 48.35 65.0478 48.1442C64.8656 47.9333 64.5958 47.8005 64.2589 47.8005H53.3509C53.014 47.8005 52.7442 47.9333 52.562 48.1442C52.3842 48.35 52.3013 48.6162 52.3013 48.8733C52.3013 49.1303 52.3842 49.3965 52.562 49.6023C52.7442 49.8133 53.014 49.946 53.3509 49.946Z" fill="#3C3D3E" stroke="#3C3D3E" stroke-width="0.5"/>
<path d="M53.3509 55.0058H64.2589C64.5958 55.0058 64.8656 54.8731 65.0478 54.6622C65.2256 54.4564 65.3086 54.1902 65.3086 53.9331C65.3086 53.676 65.2256 53.4098 65.0478 53.204C64.8656 52.9931 64.5958 52.8604 64.2589 52.8604H53.3509C53.014 52.8604 52.7442 52.9931 52.562 53.204C52.3842 53.4098 52.3013 53.676 52.3013 53.9331C52.3013 54.1902 52.3842 54.4564 52.562 54.6622C52.7442 54.8731 53.014 55.0058 53.3509 55.0058Z" fill="#3C3D3E" stroke="#3C3D3E" stroke-width="0.5"/>
</g>
<defs>
<clipPath id="clip0_20_120">
<rect width="70" height="70.2208" fill="white" transform="translate(0 0.167236)"/>
</clipPath>
</defs>
</svg>
