<svg width="91" height="91" viewBox="0 0 91 91" fill="none" xmlns="http://www.w3.org/2000/svg">
<g opacity="0.1">
<path d="M83.8906 9.95312H7.10938C5.97847 9.95444 4.89425 10.4043 4.09458 11.204C3.2949 12.0036 2.84507 13.0878 2.84375 14.2188V76.7812C2.84507 77.9122 3.2949 78.9964 4.09458 79.796C4.89425 80.5957 5.97847 81.0456 7.10938 81.0469H83.8906C85.0215 81.0456 86.1057 80.5957 86.9054 79.796C87.7051 78.9964 88.1549 77.9122 88.1562 76.7812V14.2188C88.1549 13.0878 87.7051 12.0036 86.9054 11.204C86.1057 10.4043 85.0215 9.95444 83.8906 9.95312ZM85.3125 76.7812C85.3121 77.1582 85.1621 77.5196 84.8956 77.7862C84.629 78.0528 84.2676 78.2027 83.8906 78.2031H7.10938C6.7324 78.2027 6.37099 78.0528 6.10442 77.7862C5.83786 77.5196 5.68792 77.1582 5.6875 76.7812V14.2188C5.68792 13.8418 5.83786 13.4804 6.10442 13.2138C6.37099 12.9472 6.7324 12.7973 7.10938 12.7969H83.8906C84.2676 12.7973 84.629 12.9472 84.8956 13.2138C85.1621 13.4804 85.3121 13.8418 85.3125 14.2188V76.7812Z" fill="#3C3D3E"/>
<path d="M8.53125 17.0625C9.31653 17.0625 9.95312 16.4259 9.95312 15.6406C9.95312 14.8553 9.31653 14.2188 8.53125 14.2188C7.74597 14.2188 7.10938 14.8553 7.10938 15.6406C7.10938 16.4259 7.74597 17.0625 8.53125 17.0625Z" fill="#3C3D3E"/>
<path d="M12.7969 17.0625C13.5822 17.0625 14.2188 16.4259 14.2188 15.6406C14.2188 14.8553 13.5822 14.2188 12.7969 14.2188C12.0116 14.2188 11.375 14.8553 11.375 15.6406C11.375 16.4259 12.0116 17.0625 12.7969 17.0625Z" fill="#3C3D3E"/>
<path d="M17.0625 17.0625C17.8478 17.0625 18.4844 16.4259 18.4844 15.6406C18.4844 14.8553 17.8478 14.2188 17.0625 14.2188C16.2772 14.2188 15.6406 14.8553 15.6406 15.6406C15.6406 16.4259 16.2772 17.0625 17.0625 17.0625Z" fill="#3C3D3E"/>
<path d="M79.625 21.3281H11.375C10.9979 21.3281 10.6362 21.4779 10.3696 21.7446C10.1029 22.0112 9.95312 22.3729 9.95312 22.75V38.3906C9.95312 38.7677 10.1029 39.1294 10.3696 39.396C10.6362 39.6627 10.9979 39.8125 11.375 39.8125H79.625C80.0021 39.8125 80.3638 39.6627 80.6304 39.396C80.8971 39.1294 81.0469 38.7677 81.0469 38.3906V22.75C81.0469 22.3729 80.8971 22.0112 80.6304 21.7446C80.3638 21.4779 80.0021 21.3281 79.625 21.3281ZM78.2031 36.9688H12.7969V24.1719H78.2031V36.9688Z" fill="#3C3D3E"/>
<path d="M16.6461 36.5524L19.4898 33.7086C20.3981 34.1425 21.4306 34.2414 22.4047 33.9876C23.3788 33.7339 24.2319 33.144 24.8131 32.3221C25.3943 31.5003 25.6662 30.4994 25.5808 29.4964C25.4955 28.4934 25.0582 27.5529 24.3464 26.8411C23.6346 26.1293 22.6941 25.6921 21.6912 25.6067C20.6882 25.5213 19.6873 25.7933 18.8654 26.3745C18.0435 26.9557 17.4536 27.8087 17.1999 28.7829C16.9462 29.757 17.045 30.7894 17.4789 31.6977L14.6352 34.5415L16.6461 36.5524ZM21.3281 28.4375C21.6093 28.4375 21.8842 28.5209 22.1181 28.6772C22.3519 28.8334 22.5341 29.0555 22.6418 29.3153C22.7494 29.5751 22.7775 29.861 22.7227 30.1368C22.6678 30.4126 22.5324 30.666 22.3335 30.8648C22.1347 31.0637 21.8813 31.1991 21.6055 31.254C21.3297 31.3088 21.0438 31.2807 20.784 31.1731C20.5242 31.0654 20.3021 30.8832 20.1459 30.6494C19.9896 30.4155 19.9062 30.1406 19.9062 29.8594C19.9067 29.4824 20.0566 29.121 20.3232 28.8545C20.5897 28.5879 20.9511 28.438 21.3281 28.4375Z" fill="#3C3D3E"/>
<path d="M28.4375 31.2812H31.2812V34.125H28.4375V31.2812Z" fill="#3C3D3E"/>
<path d="M34.125 31.2812H36.9688V34.125H34.125V31.2812Z" fill="#3C3D3E"/>
<path d="M39.8125 31.2812H42.6562V34.125H39.8125V31.2812Z" fill="#3C3D3E"/>
<path d="M45.5 31.2812H48.3438V34.125H45.5V31.2812Z" fill="#3C3D3E"/>
<path d="M51.1875 27.0156H54.0312V34.125H51.1875V27.0156Z" fill="#3C3D3E"/>
<path d="M24.1719 55.4531C24.549 55.4531 24.9106 55.3033 25.1773 55.0367C25.4439 54.77 25.5938 54.4084 25.5938 54.0312V45.5C25.5938 45.1229 25.4439 44.7612 25.1773 44.4946C24.9106 44.2279 24.549 44.0781 24.1719 44.0781H11.375C10.9979 44.0781 10.6362 44.2279 10.3696 44.4946C10.1029 44.7612 9.95312 45.1229 9.95312 45.5V54.0312C9.95312 54.4084 10.1029 54.77 10.3696 55.0367C10.6362 55.3033 10.9979 55.4531 11.375 55.4531H24.1719ZM12.7969 46.9219H22.75V52.6094H12.7969V46.9219Z" fill="#3C3D3E"/>
<path d="M29.8594 52.6094H41.2344V55.4531H29.8594V52.6094Z" fill="#3C3D3E"/>
<path d="M44.0781 52.6094H49.7656V55.4531H44.0781V52.6094Z" fill="#3C3D3E"/>
<path d="M24.1719 59.7188H35.5469V62.5625H24.1719V59.7188Z" fill="#3C3D3E"/>
<path d="M38.3906 59.7188H49.7656V62.5625H38.3906V59.7188Z" fill="#3C3D3E"/>
<path d="M79.625 44.0781H55.4531C55.076 44.0781 54.7144 44.2279 54.4477 44.4946C54.1811 44.7612 54.0312 45.1229 54.0312 45.5V72.5156C54.0312 72.8927 54.1811 73.2544 54.4477 73.521C54.7144 73.7877 55.076 73.9375 55.4531 73.9375H79.625C80.0021 73.9375 80.3638 73.7877 80.6304 73.521C80.8971 73.2544 81.0469 72.8927 81.0469 72.5156V45.5C81.0469 45.1229 80.8971 44.7612 80.6304 44.4946C80.3638 44.2279 80.0021 44.0781 79.625 44.0781ZM78.2031 71.0938H56.875V46.9219H78.2031V71.0938Z" fill="#3C3D3E"/>
<path d="M29.8594 46.9219H36.9688V49.7656H29.8594V46.9219Z" fill="#3C3D3E"/>
<path d="M39.8125 46.9219H49.7656V49.7656H39.8125V46.9219Z" fill="#3C3D3E"/>
<path d="M17.0625 59.7188H21.3281V62.5625H17.0625V59.7188Z" fill="#3C3D3E"/>
<path d="M29.8594 65.4062H49.7656V68.25H29.8594V65.4062Z" fill="#3C3D3E"/>
<path d="M11.375 65.4062H27.0156V68.25H11.375V65.4062Z" fill="#3C3D3E"/>
<path d="M21.3281 71.0938H38.3906V73.9375H21.3281V71.0938Z" fill="#3C3D3E"/>
<path d="M41.2344 71.0938H49.7656V73.9375H41.2344V71.0938Z" fill="#3C3D3E"/>
<path d="M11.375 71.0938H18.4844V73.9375H11.375V71.0938Z" fill="#3C3D3E"/>
</g>
</svg>
