<svg width="76" height="76" viewBox="0 0 76 76" fill="none" xmlns="http://www.w3.org/2000/svg">
<g opacity="0.1" clip-path="url(#clip0_20_218)">
<path d="M71.5469 0H4.45312C1.99767 0 0 1.99767 0 4.45312V63.8281C0 66.2836 1.99767 68.2812 4.45312 68.2812H33.6205L37.8225 72.4834C38.4023 73.0632 39.3419 73.0632 39.9218 72.4834L41.3415 71.0637C42.4485 71.6753 43.6146 72.1584 44.8281 72.5089V74.5156C44.8281 75.3354 45.4928 76 46.3125 76H52.8438C53.6634 76 54.3281 75.3354 54.3281 74.5156V72.5088C55.5416 72.1584 56.7077 71.6751 57.8148 71.0636L59.2344 72.4832C59.8142 73.0629 60.7538 73.0629 61.3338 72.4832L65.5358 68.2812H71.5469C74.0023 68.2812 76 66.2836 76 63.8281V46.7578C76 45.938 75.3353 45.2734 74.5156 45.2734C73.696 45.2734 73.0312 45.938 73.0312 46.7578V63.8281C73.0312 64.6466 72.3654 65.3125 71.5469 65.3125H65.4986L64.5323 64.3462C65.1439 63.2391 65.6273 62.0727 65.9775 60.8594H67.9844C68.804 60.8594 69.4688 60.1948 69.4688 59.375V52.8438C69.4688 52.0239 68.804 51.3594 67.9844 51.3594H65.9775C65.6273 50.146 65.1439 48.9796 64.5323 47.8726L65.952 46.4529C66.5316 45.8733 66.5316 44.9334 65.952 44.3537L61.3338 39.7354C60.7543 39.1557 59.8147 39.1557 59.2344 39.7354L57.8148 41.155C56.7077 40.5435 55.5416 40.0603 54.3281 39.7099V37.7031C54.3281 36.8833 53.6634 36.2188 52.8438 36.2188H46.3125C45.4928 36.2188 44.8281 36.8833 44.8281 37.7031V39.71C43.6146 40.0603 42.4485 40.5436 41.3415 41.1552L39.9218 39.7355C39.342 39.1559 38.4024 39.1559 37.8225 39.7355L33.2043 44.3539C32.6246 44.9335 32.6246 45.8733 33.2043 46.4531L34.6239 47.8727C34.0125 48.9798 33.5291 50.1459 33.1789 51.3595H31.1719C30.3522 51.3595 29.6875 52.0241 29.6875 52.8439V59.3751C29.6875 60.195 30.3522 60.8595 31.1719 60.8595H33.1789C33.5291 62.073 34.0125 63.2393 34.6239 64.3463L33.6576 65.3127H4.45312C3.63464 65.3127 2.96875 64.6468 2.96875 63.8283V14.8438H73.0312V33.3984C73.0312 34.2183 73.696 34.8828 74.5156 34.8828C75.3353 34.8828 76 34.2183 76 33.3984V4.45312C76 1.99767 74.0023 0 71.5469 0ZM34.3361 57.8906H32.6562V54.3281H34.3361C35.0366 54.3281 35.6418 53.8384 35.7878 53.1532C36.1457 51.475 36.8015 49.8924 37.7374 48.4491C38.1185 47.8614 38.037 47.0872 37.5416 46.592L36.3529 45.4033L38.8721 42.8842L40.0608 44.0729C40.5562 44.5682 41.3306 44.6498 41.918 44.2687C43.3613 43.3328 44.9441 42.6768 46.6221 42.3191C47.3072 42.173 47.7969 41.5678 47.7969 40.8674V39.1875H51.3594V40.8674C51.3594 41.5678 51.8491 42.173 52.5341 42.3191C54.2123 42.677 55.7951 43.3329 57.2382 44.2687C57.8261 44.6496 58.6 44.5684 59.0955 44.0729L60.2842 42.8842L62.8033 45.4033L61.6146 46.592C61.1193 47.0872 61.0377 47.8614 61.4188 48.4491C62.3549 49.8927 63.0108 51.4755 63.3684 53.1532C63.5143 53.8384 64.1197 54.3281 64.8201 54.3281H66.5V57.8906H64.8201C64.1195 57.8906 63.5143 58.3803 63.3684 59.0655C63.0108 60.7433 62.3549 62.3261 61.4188 63.7696C61.0378 64.3573 61.1193 65.1316 61.6146 65.6267L62.8033 66.8154L60.2842 69.3346L59.0955 68.1459C58.6002 67.6507 57.8258 67.569 57.2382 67.9501C55.795 68.886 54.2122 69.5419 52.5341 69.8997C51.8491 70.0457 51.3594 70.6509 51.3594 71.3514V73.0312H47.7969V71.3514C47.7969 70.6509 47.3072 70.0457 46.6221 69.8997C44.9439 69.5418 43.3611 68.8858 41.918 67.9501C41.3305 67.5693 40.5562 67.6505 40.0608 68.1459L38.8721 69.3346L36.3529 66.8154L37.5416 65.6267C38.037 65.1316 38.1186 64.3573 37.7374 63.7696C36.8015 62.3264 36.1457 60.7436 35.7878 59.0655C35.6418 58.3803 35.0366 57.8906 34.3361 57.8906ZM2.96875 11.875V4.45312C2.96875 3.63464 3.63464 2.96875 4.45312 2.96875H71.5469C72.3654 2.96875 73.0312 3.63464 73.0312 4.45312V11.875H2.96875Z" fill="#3C3D3E"/>
<path d="M66.5 5.9375H34.4375C33.6178 5.9375 32.9531 6.60205 32.9531 7.42188C32.9531 8.2417 33.6178 8.90625 34.4375 8.90625H66.5C67.3197 8.90625 67.9844 8.2417 67.9844 7.42188C67.9844 6.60205 67.3197 5.9375 66.5 5.9375Z" fill="#3C3D3E"/>
<path d="M16.0312 5.9375C15.6409 5.9375 15.2579 6.09633 14.9818 6.37242C14.7056 6.64852 14.5469 7.03148 14.5469 7.42188C14.5469 7.81227 14.7056 8.19523 14.9818 8.47133C15.258 8.74742 15.6409 8.90625 16.0312 8.90625C16.4216 8.90625 16.8046 8.74742 17.0806 8.47133C17.3568 8.19523 17.5156 7.81227 17.5156 7.42188C17.5156 7.03148 17.3568 6.64852 17.0806 6.37242C16.8046 6.09633 16.4216 5.9375 16.0312 5.9375Z" fill="#3C3D3E"/>
<path d="M9.5 5.9375C9.10961 5.9375 8.72664 6.09633 8.45055 6.37242C8.1743 6.64852 8.01562 7.03148 8.01562 7.42188C8.01562 7.81227 8.1743 8.19523 8.45055 8.47133C8.72679 8.74742 9.10961 8.90625 9.5 8.90625C9.89039 8.90625 10.2734 8.74742 10.5493 8.47133C10.8255 8.19523 10.9844 7.81227 10.9844 7.42188C10.9844 7.03148 10.8255 6.64852 10.5493 6.37242C10.2734 6.09633 9.89039 5.9375 9.5 5.9375Z" fill="#3C3D3E"/>
<path d="M22.5625 5.9375C22.1721 5.9375 21.7891 6.09633 21.513 6.37242C21.237 6.64852 21.0781 7.03148 21.0781 7.42188C21.0781 7.81227 21.2368 8.19523 21.513 8.47133C21.7893 8.74742 22.1721 8.90625 22.5625 8.90625C22.9529 8.90625 23.3359 8.74742 23.6118 8.47133C23.888 8.19523 24.0469 7.81227 24.0469 7.42188C24.0469 7.03148 23.888 6.64852 23.6118 6.37242C23.3359 6.09633 22.9529 5.9375 22.5625 5.9375Z" fill="#3C3D3E"/>
<path d="M49.5781 65.7828C54.9122 65.7828 59.2517 61.4433 59.2517 56.1093C59.2517 50.7754 54.9122 46.4358 49.5781 46.4358C44.244 46.4358 39.9046 50.7752 39.9046 56.1093C39.9046 61.4434 44.244 65.7828 49.5781 65.7828ZM49.5781 49.4045C53.2751 49.4045 56.2829 52.4123 56.2829 56.1093C56.2829 59.8063 53.2751 62.8141 49.5781 62.8141C45.8811 62.8141 42.8734 59.8064 42.8734 56.1093C42.8734 52.4122 45.8811 49.4045 49.5781 49.4045Z" fill="#3C3D3E"/>
<path d="M42.8189 25.2368H46.3515C47.1712 25.2368 47.8359 24.5723 47.8359 23.7524C47.8359 22.9326 47.1712 22.2681 46.3515 22.2681H42.8189C41.9992 22.2681 41.3345 22.9326 41.3345 23.7524C41.3345 24.5723 41.9991 25.2368 42.8189 25.2368Z" fill="#3C3D3E"/>
<path d="M66.5 22.2681H53.6602C52.8405 22.2681 52.1758 22.9326 52.1758 23.7524C52.1758 24.5723 52.8405 25.2368 53.6602 25.2368H66.5C67.3197 25.2368 67.9844 24.5723 67.9844 23.7524C67.9844 22.9326 67.3197 22.2681 66.5 22.2681Z" fill="#3C3D3E"/>
<path d="M42.8189 32.3616H57.905C58.7247 32.3616 59.3894 31.697 59.3894 30.8772C59.3894 30.0574 58.7247 29.3928 57.905 29.3928H42.8189C41.9992 29.3928 41.3345 30.0574 41.3345 30.8772C41.3345 31.697 41.9991 32.3616 42.8189 32.3616Z" fill="#3C3D3E"/>
<path d="M66.5 29.3928H64.0184C63.1988 29.3928 62.5341 30.0574 62.5341 30.8772C62.5341 31.697 63.1988 32.3616 64.0184 32.3616H66.5C67.3197 32.3616 67.9844 31.697 67.9844 30.8772C67.9844 30.0574 67.3197 29.3928 66.5 29.3928Z" fill="#3C3D3E"/>
<path d="M9.5 54.3281H9.50623C10.3259 54.3281 10.9875 53.6636 10.9875 52.8438C10.9875 52.0239 10.3197 51.3594 9.5 51.3594C8.68033 51.3594 8.01562 52.0239 8.01562 52.8438C8.01562 53.6636 8.68033 54.3281 9.5 54.3281Z" fill="#3C3D3E"/>
<path d="M24.9828 52.8438C24.9828 52.0239 24.3181 51.3594 23.4984 51.3594H16.1867C15.367 51.3594 14.7023 52.0239 14.7023 52.8438C14.7023 53.6636 15.367 54.3281 16.1867 54.3281H23.4984C24.3181 54.3281 24.9828 53.6636 24.9828 52.8438Z" fill="#3C3D3E"/>
<path d="M9.5 61.4531H18.3568C19.1765 61.4531 19.8412 60.7886 19.8412 59.9688C19.8412 59.1489 19.1765 58.4844 18.3568 58.4844H9.5C8.68033 58.4844 8.01562 59.1489 8.01562 59.9688C8.01562 60.7886 8.68033 61.4531 9.5 61.4531Z" fill="#3C3D3E"/>
<path d="M33.6726 27.6706L30.3667 21.9445C29.9569 21.2346 29.0496 20.9915 28.3391 21.401L26.795 22.2924C26.1468 21.8224 25.4555 21.4227 24.7264 21.096V19.3152C24.7264 18.4954 24.0617 17.8308 23.242 17.8308H16.6299C15.8102 17.8308 15.1455 18.4954 15.1455 19.3152V21.096C14.4167 21.4226 13.7253 21.8224 13.0767 22.2924L11.5328 21.401C10.8226 20.9912 9.91517 21.2343 9.50518 21.9443L6.19918 27.6704C6.00235 28.0114 5.94892 28.4165 6.05089 28.7968C6.15287 29.1771 6.4015 29.5013 6.74246 29.6981L8.2871 30.5899C8.24673 30.9867 8.22639 31.3857 8.22639 31.7838C8.22639 32.1819 8.24673 32.581 8.2871 32.9777L6.74246 33.8695C6.4015 34.0663 6.15272 34.3905 6.05089 34.7708C5.94892 35.1511 6.00235 35.5563 6.19918 35.8971L9.50518 41.6233C9.91517 42.3334 10.823 42.5765 11.5328 42.1665L13.0767 41.2752C13.7251 41.7453 14.4165 42.145 15.1455 42.4716V44.2524C15.1455 45.0722 15.8102 45.7368 16.6299 45.7368H23.242C24.0617 45.7368 24.7264 45.0722 24.7264 44.2524V42.4716C25.4554 42.145 26.1467 41.7451 26.795 41.2752L28.3391 42.1665C29.0494 42.5764 29.957 42.3331 30.3667 41.6231L33.6726 35.897C34.0826 35.187 33.8393 34.2793 33.1293 33.8693L31.5848 32.9775C31.6252 32.5807 31.6455 32.1817 31.6455 31.7836C31.6455 31.3855 31.6252 30.9864 31.5848 30.5898L33.1293 29.6979C33.8393 29.2884 34.0824 28.3806 33.6726 27.6706ZM28.513 30.0935C28.6216 30.6487 28.6768 31.2175 28.6768 31.7841C28.6768 32.3507 28.6217 32.9195 28.513 33.4746C28.3912 34.097 28.6783 34.728 29.2275 35.0453L30.3593 35.6988L28.5378 38.854L27.4044 38.1997C26.8543 37.8823 26.1636 37.9497 25.6852 38.3677C24.8229 39.1215 23.8393 39.6903 22.7621 40.0583C22.1614 40.2634 21.7575 40.8281 21.7575 41.4629V42.7686H18.1141V41.4629C18.1141 40.8281 17.7102 40.2634 17.1093 40.0583C16.0323 39.6905 15.0487 39.1216 14.1862 38.3677C13.708 37.9499 13.0172 37.8823 12.4671 38.1998L11.3338 38.8542L9.51216 35.699L10.6441 35.0454C11.1934 34.7283 11.4806 34.0972 11.3586 33.4748C11.2501 32.9196 11.1948 32.3508 11.1948 31.7842C11.1948 31.2176 11.2499 30.6488 11.3586 30.0937C11.4804 29.4713 11.1934 28.8403 10.6441 28.5231L9.51216 27.8695L11.3338 24.7143L12.4671 25.3686C13.0172 25.6863 13.708 25.6187 14.1862 25.2007C15.0489 24.4468 16.0324 23.878 17.1093 23.5102C17.7102 23.305 18.1141 22.7404 18.1141 22.1055V20.7999H21.7575V22.1055C21.7575 22.7404 22.1614 23.305 22.7621 23.5102C23.8395 23.8782 24.823 24.447 25.6852 25.2007C26.1636 25.6184 26.8541 25.6861 27.4044 25.3688L28.5378 24.7145L30.3593 27.8696L29.2275 28.5232C28.6783 28.8401 28.3912 29.4711 28.513 30.0935Z" fill="#3C3D3E"/>
<path d="M19.9359 26.7373C17.153 26.7373 14.889 29.0013 14.889 31.7842C14.889 34.5671 17.153 36.8311 19.9359 36.8311C22.7188 36.8311 24.9828 34.5671 24.9828 31.7842C24.9828 29.0013 22.7188 26.7373 19.9359 26.7373ZM19.9359 33.8623C18.79 33.8623 17.8578 32.9301 17.8578 31.7842C17.8578 30.6382 18.79 29.7061 19.9359 29.7061C21.0818 29.7061 22.014 30.6382 22.014 31.7842C22.014 32.9301 21.0817 33.8623 19.9359 33.8623Z" fill="#3C3D3E"/>
<path d="M74.5156 38.5938C74.1252 38.5938 73.7423 38.7526 73.4662 39.0287C73.1901 39.3048 73.0312 39.6877 73.0312 40.0781C73.0312 40.4685 73.1899 40.8515 73.4662 41.1276C73.7424 41.4037 74.1252 41.5625 74.5156 41.5625C74.906 41.5625 75.289 41.4037 75.5649 41.1276C75.841 40.8515 76 40.4685 76 40.0781C76 39.6877 75.8412 39.3048 75.5649 39.0287C75.289 38.7526 74.906 38.5938 74.5156 38.5938Z" fill="#3C3D3E"/>
</g>
<defs>
<clipPath id="clip0_20_218">
<rect width="76" height="76" fill="white"/>
</clipPath>
</defs>
</svg>
