<svg width="36" height="36" viewBox="0 0 36 36" fill="none" xmlns="http://www.w3.org/2000/svg">
<circle cx="18.1077" cy="18.0921" r="16.2308" stroke="white" stroke-opacity="0.85" stroke-width="2"/>
<path d="M6.88687 12.0426L6.04632 12.0597C6.04169 11.8363 6.12819 11.6204 6.28633 11.4608C6.44447 11.3012 6.6609 11.2113 6.88687 11.2113V12.0426ZM19.5537 25.8765H20.3944C20.3944 26.3356 20.018 26.7079 19.5537 26.7079V25.8765ZM19.5537 20.9326H18.713C18.713 20.6978 18.8134 20.474 18.9894 20.3164C19.1655 20.1588 19.4007 20.0821 19.6371 20.1054L19.5537 20.9326ZM25.3491 25.8765V26.7079C24.9836 26.7079 24.6601 26.4744 24.5486 26.1303L25.3491 25.8765ZM29.3284 25.8765L30.1401 25.6595C30.2083 25.9093 30.1552 26.1763 29.9961 26.3818C29.8369 26.5873 29.5902 26.7079 29.3284 26.7079V25.8765ZM23.5779 18.9373L23.2033 19.6817C22.9294 19.5467 22.751 19.2752 22.738 18.9727C22.7249 18.6703 22.8793 18.3848 23.1407 18.2273L23.5779 18.9373ZM28.4877 12.0316V11.2002C28.7403 11.2002 28.9794 11.3124 29.1391 11.5059C29.2989 11.6993 29.3621 11.9535 29.3115 12.1981L28.4877 12.0316ZM24.8783 12.0316L24.0692 11.8057C24.1715 11.4475 24.5019 11.2002 24.8783 11.2002V12.0316ZM19.5537 17.5074L19.6428 18.3341C19.4058 18.3592 19.169 18.2834 18.9916 18.1258C18.8142 17.968 18.713 17.7433 18.713 17.5074H19.5537ZM19.5537 12.0426V11.2113C20.018 11.2113 20.3944 11.5835 20.3944 12.0426H19.5537ZM15.9331 12.0426H15.0924C15.0924 11.5835 15.4687 11.2113 15.9331 11.2113V12.0426ZM15.9331 21.62H16.7738C16.7738 21.8759 16.6544 22.1176 16.4505 22.2752C16.2463 22.4327 15.9803 22.4886 15.7291 22.4264L15.9331 21.62ZM10.743 12.0426V11.2113C11.201 11.2113 11.5747 11.5738 11.5835 12.0267L10.743 12.0426ZM19.1053 26.7079C15.0661 26.7079 11.8088 25.333 9.55145 22.7448C7.31086 20.1759 6.1386 16.5074 6.04632 12.0597L7.72742 12.0256C7.8145 16.2239 8.91777 19.4724 10.8247 21.6589C12.715 23.8261 15.4772 25.0452 19.1053 25.0452V26.7079ZM19.1165 26.7079H19.1053V25.0452H19.1165V26.7079ZM19.5537 26.7079H19.1165V25.0452H19.5537V26.7079ZM20.3944 20.9326V25.8765H18.713V20.9326H20.3944ZM24.5486 26.1303C23.7785 23.7557 21.8891 21.9981 19.4703 21.76L19.6371 20.1054C22.8455 20.4215 25.2158 22.743 26.1497 25.6226L24.5486 26.1303ZM29.3284 26.7079H25.3491V25.0452H29.3284V26.7079ZM27.8558 21.2703C28.9224 22.5572 29.7009 24.0532 30.1401 25.6595L28.517 26.0935C28.1398 24.7141 27.4713 23.4293 26.5552 22.3243L27.8558 21.2703ZM23.9525 18.1931C25.4589 18.9345 26.7893 19.9833 27.8558 21.2703L26.5552 22.3243C25.6394 21.2191 24.497 20.3184 23.2033 19.6817L23.9525 18.1931ZM27.4486 16.4687C26.5373 17.7505 25.3685 18.8326 24.0153 19.6475L23.1407 18.2273C24.2966 17.5313 25.2947 16.607 26.073 15.5125L27.4486 16.4687ZM29.3115 12.1981C28.994 13.7331 28.3598 15.1869 27.4486 16.4687L26.073 15.5125C26.8513 14.4177 27.3929 13.176 27.6642 11.865L29.3115 12.1981ZM24.8783 11.2002H28.4877V12.8629H24.8783V11.2002ZM19.4646 16.6809C20.2994 16.5927 21.2621 16.0547 22.1403 15.1405C23.0074 14.2379 23.7155 13.0448 24.0692 11.8057L25.6875 12.2574C25.2563 13.7673 24.4064 15.1958 23.3595 16.2856C22.3236 17.3639 21.0164 18.1893 19.6428 18.3341L19.4646 16.6809ZM20.3944 12.0426V17.5074H18.713V12.0426H20.3944ZM15.9331 11.2113H19.5537V12.874H15.9331V11.2113ZM15.0924 21.62V12.0426H16.7738V21.62H15.0924ZM11.5835 12.0267C11.7024 18.1381 14.3896 20.3814 16.1369 20.8134L15.7291 22.4264C12.9926 21.75 10.0302 18.6282 9.90242 12.0586L11.5835 12.0267ZM6.88687 11.2113H10.743V12.874H6.88687V11.2113Z" fill="white" fill-opacity="0.85"/>
</svg>
