<svg width="35" height="35" viewBox="0 0 35 35" fill="none" xmlns="http://www.w3.org/2000/svg">
<mask id="path-1-outside-1_150_74" maskUnits="userSpaceOnUse" x="0" y="-0.138489" width="35" height="35" fill="black">
<rect fill="white" y="-0.138489" width="35" height="35"/>
<path fill-rule="evenodd" clip-rule="evenodd" d="M1.21679 17.014C1.21679 8.12467 8.48001 0.861511 17.4234 0.861511C26.4211 0.861511 33.7385 8.12467 33.7385 17.0139C33.7385 25.9031 26.2585 33.3831 17.4234 33.3831C14.9301 33.3831 12.2741 32.6243 9.72661 31.2692L1 33.6L3.38491 25.036C1.97564 22.5426 1.21679 19.8325 1.21679 17.014ZM10.0518 30.1852C12.491 31.5403 15.0385 32.2991 17.4234 32.2991C25.6623 32.2991 32.6544 25.307 32.6544 17.014C32.6544 8.72091 25.8248 1.94557 17.4234 1.94557C9.07619 1.94557 2.30085 8.72091 2.30085 17.014C2.30085 19.6699 3.05963 22.3258 4.41473 24.6566L4.52315 24.8734L2.5177 32.0823L9.83504 30.0768L10.0518 30.1852ZM23.6593 17.8896L27.8146 19.7655C28.3423 20.0243 28.672 20.6065 28.5402 21.1887L28.3423 22.0944C28.0784 23.2588 27.3529 24.3586 26.2976 25.0054C25.3742 25.5229 24.3189 25.8463 23.1976 25.8463C22.604 25.8463 21.9444 25.7817 21.2848 25.5876C14.6892 23.7764 11.2594 19.1834 10.1381 17.6309C8.29125 15.1727 7.56578 12.6498 8.02745 10.5151C8.35726 9.02727 9.47854 7.92755 10.0722 7.41002C10.4679 7.02189 11.0615 6.89249 11.5892 6.89249L12.8424 6.95715C13.3701 6.95715 13.7658 7.28062 13.9637 7.73341L15.7445 11.8735C15.9424 12.3263 15.8764 12.8438 15.5466 13.2319L14.0955 14.9139C16.0083 18.4071 19.3062 19.8303 20.4934 20.2831L22.0763 18.2777C22.4721 17.8249 23.0657 17.6308 23.6593 17.8896ZM25.506 23.8409C26.2316 23.3881 26.7593 22.6118 26.9571 21.7708L27.221 20.8653L23.0657 18.9893L21.4827 21.0593C21.1529 21.4474 20.6912 21.5769 20.2295 21.4474C19.0423 21.0593 15.0848 19.4421 12.9083 15.302C12.7104 14.9138 12.7764 14.3963 13.0402 14.0729L14.6231 12.3263L12.8423 8.25086L11.5232 8.12146C11.3253 8.12146 11.1274 8.18612 10.9955 8.31553C10.4678 8.76832 9.61032 9.60931 9.34653 10.7737C8.95079 12.5203 9.6104 14.7197 11.1934 16.8544C12.2486 18.2776 15.4806 22.6118 21.6146 24.2937C23.0656 24.6818 24.3847 24.5525 25.506 23.8409Z"/>
</mask>
<path fill-rule="evenodd" clip-rule="evenodd" d="M1.21679 17.014C1.21679 8.12467 8.48001 0.861511 17.4234 0.861511C26.4211 0.861511 33.7385 8.12467 33.7385 17.0139C33.7385 25.9031 26.2585 33.3831 17.4234 33.3831C14.9301 33.3831 12.2741 32.6243 9.72661 31.2692L1 33.6L3.38491 25.036C1.97564 22.5426 1.21679 19.8325 1.21679 17.014ZM10.0518 30.1852C12.491 31.5403 15.0385 32.2991 17.4234 32.2991C25.6623 32.2991 32.6544 25.307 32.6544 17.014C32.6544 8.72091 25.8248 1.94557 17.4234 1.94557C9.07619 1.94557 2.30085 8.72091 2.30085 17.014C2.30085 19.6699 3.05963 22.3258 4.41473 24.6566L4.52315 24.8734L2.5177 32.0823L9.83504 30.0768L10.0518 30.1852ZM23.6593 17.8896L27.8146 19.7655C28.3423 20.0243 28.672 20.6065 28.5402 21.1887L28.3423 22.0944C28.0784 23.2588 27.3529 24.3586 26.2976 25.0054C25.3742 25.5229 24.3189 25.8463 23.1976 25.8463C22.604 25.8463 21.9444 25.7817 21.2848 25.5876C14.6892 23.7764 11.2594 19.1834 10.1381 17.6309C8.29125 15.1727 7.56578 12.6498 8.02745 10.5151C8.35726 9.02727 9.47854 7.92755 10.0722 7.41002C10.4679 7.02189 11.0615 6.89249 11.5892 6.89249L12.8424 6.95715C13.3701 6.95715 13.7658 7.28062 13.9637 7.73341L15.7445 11.8735C15.9424 12.3263 15.8764 12.8438 15.5466 13.2319L14.0955 14.9139C16.0083 18.4071 19.3062 19.8303 20.4934 20.2831L22.0763 18.2777C22.4721 17.8249 23.0657 17.6308 23.6593 17.8896ZM25.506 23.8409C26.2316 23.3881 26.7593 22.6118 26.9571 21.7708L27.221 20.8653L23.0657 18.9893L21.4827 21.0593C21.1529 21.4474 20.6912 21.5769 20.2295 21.4474C19.0423 21.0593 15.0848 19.4421 12.9083 15.302C12.7104 14.9138 12.7764 14.3963 13.0402 14.0729L14.6231 12.3263L12.8423 8.25086L11.5232 8.12146C11.3253 8.12146 11.1274 8.18612 10.9955 8.31553C10.4678 8.76832 9.61032 9.60931 9.34653 10.7737C8.95079 12.5203 9.6104 14.7197 11.1934 16.8544C12.2486 18.2776 15.4806 22.6118 21.6146 24.2937C23.0656 24.6818 24.3847 24.5525 25.506 23.8409Z" fill="#119F63"/>
<path d="M9.72661 31.2692L9.91446 30.9161L9.77549 30.8422L9.6234 30.8828L9.72661 31.2692ZM1 33.6L0.614663 33.4927L0.426853 34.1671L1.10322 33.9864L1 33.6ZM3.38491 25.036L3.77025 25.1433L3.81474 24.9835L3.73314 24.8391L3.38491 25.036ZM10.0518 30.1852L10.2461 29.8356L10.2385 29.8314L10.2308 29.8275L10.0518 30.1852ZM4.41473 24.6566L4.77248 24.4776L4.76685 24.4664L4.76053 24.4555L4.41473 24.6566ZM4.52315 24.8734L4.90852 24.9806L4.9498 24.8322L4.8809 24.6944L4.52315 24.8734ZM2.5177 32.0823L2.13233 31.9751L1.94334 32.6544L2.62343 32.468L2.5177 32.0823ZM9.83504 30.0768L10.014 29.7191L9.877 29.6506L9.72931 29.691L9.83504 30.0768ZM27.8146 19.7655L27.9908 19.4062L27.9792 19.401L27.8146 19.7655ZM23.6593 17.8896L23.8239 17.525L23.8191 17.5229L23.6593 17.8896ZM28.5402 21.1887L28.15 21.1004L28.1494 21.1033L28.5402 21.1887ZM28.3423 22.0944L28.7324 22.1828L28.7331 22.1798L28.3423 22.0944ZM26.2976 25.0054L26.4931 25.3544L26.5 25.3505L26.5066 25.3465L26.2976 25.0054ZM21.2848 25.5876L21.3978 25.2038L21.3908 25.2019L21.2848 25.5876ZM10.1381 17.6309L10.4624 17.3967L10.4579 17.3906L10.1381 17.6309ZM8.02745 10.5151L7.63692 10.4286L7.63649 10.4306L8.02745 10.5151ZM10.0722 7.41002L10.335 7.71152L10.3439 7.70381L10.3522 7.6956L10.0722 7.41002ZM11.5892 6.89249L11.6098 6.49302L11.5995 6.49249H11.5892V6.89249ZM12.8424 6.95715L12.8218 7.35662L12.8321 7.35715H12.8424V6.95715ZM13.9637 7.73341L14.3311 7.57535L14.3302 7.57324L13.9637 7.73341ZM15.7445 11.8735L15.3771 12.0316L15.378 12.0337L15.7445 11.8735ZM15.5466 13.2319L15.8495 13.4932L15.8515 13.491L15.5466 13.2319ZM14.0955 14.9139L13.7927 14.6526L13.6115 14.8626L13.7447 15.106L14.0955 14.9139ZM20.4934 20.2831L20.3508 20.6568L20.6253 20.7615L20.8073 20.5309L20.4934 20.2831ZM22.0763 18.2777L21.7751 18.0145L21.7686 18.022L21.7624 18.0299L22.0763 18.2777ZM26.9571 21.7708L26.5731 21.6589L26.5702 21.669L26.5678 21.6792L26.9571 21.7708ZM25.506 23.8409L25.2943 23.5015L25.2917 23.5031L25.506 23.8409ZM27.221 20.8653L27.605 20.9772L27.7022 20.6436L27.3856 20.5007L27.221 20.8653ZM23.0657 18.9893L23.2303 18.6247L22.9408 18.494L22.7479 18.7463L23.0657 18.9893ZM21.4827 21.0593L21.7875 21.3183L21.7942 21.3105L21.8005 21.3023L21.4827 21.0593ZM20.2295 21.4474L20.1052 21.8276L20.1133 21.8303L20.1215 21.8326L20.2295 21.4474ZM12.9083 15.302L12.5518 15.4836L12.5542 15.4881L12.9083 15.302ZM13.0402 14.0729L12.7438 13.8042L12.7368 13.812L12.7302 13.8201L13.0402 14.0729ZM14.6231 12.3263L14.9195 12.5949L15.0933 12.4032L14.9897 12.1661L14.6231 12.3263ZM12.8423 8.25086L13.2089 8.0907L13.1149 7.87568L12.8814 7.85277L12.8423 8.25086ZM11.5232 8.12146L11.5622 7.72337L11.5427 7.72146H11.5232V8.12146ZM10.9955 8.31553L11.256 8.61909L11.2661 8.61042L11.2756 8.6011L10.9955 8.31553ZM9.34653 10.7737L9.73664 10.8621L9.73664 10.8621L9.34653 10.7737ZM11.1934 16.8544L11.5147 16.6162L11.5147 16.6162L11.1934 16.8544ZM21.6146 24.2937L21.5088 24.6794L21.5112 24.6801L21.6146 24.2937ZM17.4234 0.461511C8.25997 0.461511 0.816787 7.90288 0.816787 17.014H1.61679C1.61679 8.34646 8.70005 1.26151 17.4234 1.26151V0.461511ZM34.1385 17.0139C34.1385 7.90029 26.6385 0.461511 17.4234 0.461511V1.26151C26.2036 1.26151 33.3385 8.34905 33.3385 17.0139H34.1385ZM17.4234 33.7831C26.4802 33.7831 34.1385 26.1232 34.1385 17.0139H33.3385C33.3385 25.6831 26.0367 32.9831 17.4234 32.9831V33.7831ZM9.53877 31.6224C12.1307 33.0011 14.8509 33.7831 17.4234 33.7831V32.9831C15.0092 32.9831 12.4175 32.2476 9.91446 30.9161L9.53877 31.6224ZM1.10322 33.9864L9.82983 31.6557L9.6234 30.8828L0.896785 33.2135L1.10322 33.9864ZM2.99957 24.9287L0.614663 33.4927L1.38534 33.7073L3.77025 25.1433L2.99957 24.9287ZM0.816787 17.014C0.816787 19.9064 1.59596 22.6838 3.03669 25.2328L3.73314 24.8391C2.35531 22.4014 1.61679 19.7586 1.61679 17.014H0.816787ZM17.4234 31.8991C15.1212 31.8991 12.6402 31.1656 10.2461 29.8356L9.85758 30.5349C12.3417 31.9149 14.9558 32.6991 17.4234 32.6991V31.8991ZM32.2544 17.014C32.2544 25.087 25.4404 31.8991 17.4234 31.8991V32.6991C25.8841 32.6991 33.0544 25.527 33.0544 17.014H32.2544ZM17.4234 2.34557C25.6076 2.34557 32.2544 8.94554 32.2544 17.014H33.0544C33.0544 8.49628 26.042 1.54557 17.4234 1.54557V2.34557ZM2.70085 17.014C2.70085 8.94276 9.29617 2.34557 17.4234 2.34557V1.54557C8.85621 1.54557 1.90085 8.49907 1.90085 17.014H2.70085ZM4.76053 24.4555C3.43848 22.1816 2.70085 19.5945 2.70085 17.014H1.90085C1.90085 19.7453 2.68079 22.4701 4.06893 24.8576L4.76053 24.4555ZM4.8809 24.6944L4.77248 24.4776L4.05698 24.8355L4.1654 25.0523L4.8809 24.6944ZM2.90307 32.1895L4.90852 24.9806L4.13779 24.7662L2.13233 31.9751L2.90307 32.1895ZM9.72931 29.691L2.41197 31.6965L2.62343 32.468L9.94077 30.4626L9.72931 29.691ZM10.2308 29.8275L10.014 29.7191L9.65611 30.4346L9.8729 30.543L10.2308 29.8275ZM27.9792 19.401L23.8239 17.525L23.4947 18.2541L27.65 20.1301L27.9792 19.401ZM28.9303 21.2771C29.1087 20.4893 28.6608 19.735 27.9907 19.4064L27.6385 20.1247C28.0237 20.3136 28.2354 20.7236 28.15 21.1004L28.9303 21.2771ZM28.7331 22.1798L28.9309 21.2741L28.1494 21.1033L27.9515 22.009L28.7331 22.1798ZM26.5066 25.3465C27.6624 24.6381 28.447 23.4424 28.7324 22.1828L27.9522 22.006C27.7099 23.0753 27.0435 24.0791 26.0886 24.6644L26.5066 25.3465ZM23.1976 26.2463C24.3969 26.2463 25.5188 25.9003 26.4931 25.3544L26.1021 24.6565C25.2295 25.1454 24.2409 25.4463 23.1976 25.4463V26.2463ZM21.1719 25.9713C21.8769 26.1788 22.5761 26.2463 23.1976 26.2463V25.4463C22.6319 25.4463 22.0119 25.3846 21.3978 25.2039L21.1719 25.9713ZM9.81381 17.8651C10.949 19.4368 14.447 24.1247 21.1789 25.9733L21.3908 25.2019C14.9313 23.4281 11.5698 18.93 10.4624 17.3967L9.81381 17.8651ZM7.63649 10.4306C7.14222 12.716 7.92844 15.3558 9.81828 17.8712L10.4579 17.3906C8.65406 14.9897 7.98934 12.5837 8.41841 10.5997L7.63649 10.4306ZM9.80929 7.10852C9.20517 7.63521 7.9963 8.80737 7.63693 10.4286L8.41797 10.6017C8.71822 9.24718 9.75192 8.21989 10.335 7.71152L9.80929 7.10852ZM11.5892 6.49249C11.0145 6.49249 10.2956 6.63058 9.79207 7.12445L10.3522 7.6956C10.6402 7.4132 11.1085 7.29249 11.5892 7.29249V6.49249ZM12.863 6.55768L11.6098 6.49302L11.5686 7.29196L12.8218 7.35662L12.863 6.55768ZM14.3302 7.57324C14.0813 7.00373 13.5584 6.55715 12.8424 6.55715V7.35715C13.1817 7.35715 13.4503 7.55751 13.5972 7.89358L14.3302 7.57324ZM16.112 11.7154L14.3311 7.57536L13.5962 7.89147L15.3771 12.0316L16.112 11.7154ZM15.8515 13.491C16.2828 12.9833 16.3685 12.3024 16.111 11.7133L15.378 12.0337C15.5163 12.3502 15.47 12.7044 15.2418 12.9729L15.8515 13.491ZM14.3984 15.1752L15.8495 13.4932L15.2438 12.9706L13.7927 14.6526L14.3984 15.1752ZM20.6359 19.9093C19.4732 19.4659 16.2888 18.0865 14.4464 14.7217L13.7447 15.106C15.7278 18.7277 19.1391 20.1947 20.3508 20.6568L20.6359 19.9093ZM21.7624 18.0299L20.1794 20.0352L20.8073 20.5309L22.3903 18.5255L21.7624 18.0299ZM23.8191 17.5229C23.0418 17.1841 22.2674 17.4512 21.7751 18.0145L22.3775 18.5409C22.6767 18.1986 23.0896 18.0776 23.4995 18.2562L23.8191 17.5229ZM26.5678 21.6792C26.3921 22.4256 25.9233 23.109 25.2943 23.5015L25.7178 24.1802C26.5399 23.6672 27.1264 22.7979 27.3465 21.8625L26.5678 21.6792ZM26.837 20.7534L26.5731 21.6589L27.3412 21.8827L27.605 20.9772L26.837 20.7534ZM22.9011 19.3538L27.0564 21.2298L27.3856 20.5007L23.2303 18.6247L22.9011 19.3538ZM21.8005 21.3023L23.3834 19.2323L22.7479 18.7463L21.165 20.8163L21.8005 21.3023ZM20.1215 21.8326C20.7315 22.0036 21.3551 21.8272 21.7875 21.3183L21.1779 20.8003C20.9507 21.0677 20.6508 21.1501 20.3375 21.0623L20.1215 21.8326ZM12.5542 15.4881C14.8023 19.7644 18.8794 21.4269 20.1052 21.8276L20.3538 21.0673C19.2051 20.6917 15.3673 19.1198 13.2623 15.1158L12.5542 15.4881ZM12.7302 13.8201C12.3688 14.2631 12.2802 14.9506 12.5519 15.4836L13.2646 15.1203C13.1406 14.877 13.1839 14.5295 13.3502 14.3257L12.7302 13.8201ZM14.3268 12.0577L12.7438 13.8042L13.3366 14.3415L14.9195 12.5949L14.3268 12.0577ZM12.4758 8.41103L14.2566 12.4864L14.9897 12.1661L13.2089 8.0907L12.4758 8.41103ZM11.4841 8.51955L12.8033 8.64895L12.8814 7.85277L11.5622 7.72337L11.4841 8.51955ZM11.2756 8.6011C11.3151 8.5623 11.4025 8.52146 11.5232 8.52146V7.72146C11.2481 7.72146 10.9397 7.80995 10.7154 8.02995L11.2756 8.6011ZM9.73664 10.8621C9.97031 9.83069 10.7403 9.06156 11.256 8.61909L10.735 8.01196C10.1953 8.47507 9.25034 9.38793 8.95641 10.6853L9.73664 10.8621ZM11.5147 16.6162C9.96818 14.5307 9.37679 12.4503 9.73664 10.8621L8.95641 10.6853C8.52478 12.5903 9.25263 14.9088 10.8721 17.0927L11.5147 16.6162ZM21.7204 23.9079C15.7234 22.2636 12.56 18.026 11.5147 16.6162L10.872 17.0927C11.9372 18.5292 15.2377 22.9599 21.5088 24.6794L21.7204 23.9079ZM25.2917 23.5031C24.284 24.1427 23.0849 24.2729 21.7179 23.9073L21.5112 24.6801C23.0463 25.0907 24.4855 24.9623 25.7204 24.1786L25.2917 23.5031Z" fill="#119F63" mask="url(#path-1-outside-1_150_74)"/>
</svg>
