<svg width="35" height="35" viewBox="0 0 35 35" fill="none" xmlns="http://www.w3.org/2000/svg">
<mask id="path-1-outside-1_36_256" maskUnits="userSpaceOnUse" x="0" y="-0.138672" width="35" height="35" fill="black">
<rect fill="white" y="-0.138672" width="35" height="35"/>
<path fill-rule="evenodd" clip-rule="evenodd" d="M1.21679 17.0138C1.21679 8.12449 8.48001 0.861328 17.4234 0.861328C26.4211 0.861328 33.7385 8.12449 33.7385 17.0137C33.7385 25.9029 26.2585 33.3829 17.4234 33.3829C14.9301 33.3829 12.2741 32.6242 9.72661 31.2691L1 33.5998L3.38491 25.0358C1.97564 22.5424 1.21679 19.8323 1.21679 17.0138ZM10.0518 30.1851C12.491 31.5401 15.0385 32.2989 17.4234 32.2989C25.6623 32.2989 32.6544 25.3068 32.6544 17.0138C32.6544 8.72073 25.8248 1.94539 17.4234 1.94539C9.07619 1.94539 2.30085 8.72073 2.30085 17.0138C2.30085 19.6697 3.05963 22.3257 4.41473 24.6564L4.52315 24.8732L2.5177 32.0821L9.83504 30.0766L10.0518 30.1851ZM23.6593 17.8894L27.8146 19.7654C28.3423 20.0241 28.672 20.6063 28.5402 21.1885L28.3423 22.0942C28.0784 23.2587 27.3529 24.3584 26.2976 25.0052C25.3742 25.5227 24.3189 25.8462 23.1976 25.8462C22.604 25.8462 21.9444 25.7815 21.2848 25.5874C14.6892 23.7762 11.2594 19.1832 10.1381 17.6307C8.29125 15.1726 7.56578 12.6496 8.02745 10.5149C8.35726 9.02709 9.47854 7.92737 10.0722 7.40984C10.4679 7.02171 11.0615 6.89231 11.5892 6.89231L12.8424 6.95697C13.3701 6.95697 13.7658 7.28044 13.9637 7.73323L15.7445 11.8733C15.9424 12.3261 15.8764 12.8436 15.5466 13.2318L14.0955 14.9137C16.0083 18.4069 19.3062 19.8301 20.4934 20.2829L22.0763 18.2775C22.4721 17.8247 23.0657 17.6306 23.6593 17.8894ZM25.506 23.8407C26.2316 23.3879 26.7593 22.6116 26.9571 21.7707L27.221 20.8651L23.0657 18.9891L21.4827 21.0591C21.1529 21.4473 20.6912 21.5767 20.2295 21.4473C19.0423 21.0591 15.0848 19.4419 12.9083 15.3018C12.7104 14.9136 12.7764 14.3961 13.0402 14.0727L14.6231 12.3261L12.8423 8.25068L11.5232 8.12128C11.3253 8.12128 11.1274 8.18594 10.9955 8.31534C10.4678 8.76813 9.61032 9.60913 9.34653 10.7735C8.95079 12.5201 9.6104 14.7195 11.1934 16.8542C12.2486 18.2774 15.4806 22.6116 21.6146 24.2935C23.0656 24.6816 24.3847 24.5523 25.506 23.8407Z"/>
</mask>
<path fill-rule="evenodd" clip-rule="evenodd" d="M1.21679 17.0138C1.21679 8.12449 8.48001 0.861328 17.4234 0.861328C26.4211 0.861328 33.7385 8.12449 33.7385 17.0137C33.7385 25.9029 26.2585 33.3829 17.4234 33.3829C14.9301 33.3829 12.2741 32.6242 9.72661 31.2691L1 33.5998L3.38491 25.0358C1.97564 22.5424 1.21679 19.8323 1.21679 17.0138ZM10.0518 30.1851C12.491 31.5401 15.0385 32.2989 17.4234 32.2989C25.6623 32.2989 32.6544 25.3068 32.6544 17.0138C32.6544 8.72073 25.8248 1.94539 17.4234 1.94539C9.07619 1.94539 2.30085 8.72073 2.30085 17.0138C2.30085 19.6697 3.05963 22.3257 4.41473 24.6564L4.52315 24.8732L2.5177 32.0821L9.83504 30.0766L10.0518 30.1851ZM23.6593 17.8894L27.8146 19.7654C28.3423 20.0241 28.672 20.6063 28.5402 21.1885L28.3423 22.0942C28.0784 23.2587 27.3529 24.3584 26.2976 25.0052C25.3742 25.5227 24.3189 25.8462 23.1976 25.8462C22.604 25.8462 21.9444 25.7815 21.2848 25.5874C14.6892 23.7762 11.2594 19.1832 10.1381 17.6307C8.29125 15.1726 7.56578 12.6496 8.02745 10.5149C8.35726 9.02709 9.47854 7.92737 10.0722 7.40984C10.4679 7.02171 11.0615 6.89231 11.5892 6.89231L12.8424 6.95697C13.3701 6.95697 13.7658 7.28044 13.9637 7.73323L15.7445 11.8733C15.9424 12.3261 15.8764 12.8436 15.5466 13.2318L14.0955 14.9137C16.0083 18.4069 19.3062 19.8301 20.4934 20.2829L22.0763 18.2775C22.4721 17.8247 23.0657 17.6306 23.6593 17.8894ZM25.506 23.8407C26.2316 23.3879 26.7593 22.6116 26.9571 21.7707L27.221 20.8651L23.0657 18.9891L21.4827 21.0591C21.1529 21.4473 20.6912 21.5767 20.2295 21.4473C19.0423 21.0591 15.0848 19.4419 12.9083 15.3018C12.7104 14.9136 12.7764 14.3961 13.0402 14.0727L14.6231 12.3261L12.8423 8.25068L11.5232 8.12128C11.3253 8.12128 11.1274 8.18594 10.9955 8.31534C10.4678 8.76813 9.61032 9.60913 9.34653 10.7735C8.95079 12.5201 9.6104 14.7195 11.1934 16.8542C12.2486 18.2774 15.4806 22.6116 21.6146 24.2935C23.0656 24.6816 24.3847 24.5523 25.506 23.8407Z" fill="white" fill-opacity="0.85"/>
<path d="M9.72661 31.2691L9.91446 30.9159L9.77549 30.842L9.6234 30.8826L9.72661 31.2691ZM1 33.5998L0.614663 33.4925L0.426853 34.1669L1.10322 33.9862L1 33.5998ZM3.38491 25.0358L3.77025 25.1431L3.81474 24.9833L3.73314 24.839L3.38491 25.0358ZM10.0518 30.1851L10.2461 29.8354L10.2385 29.8312L10.2308 29.8273L10.0518 30.1851ZM4.41473 24.6564L4.77248 24.4775L4.76685 24.4662L4.76053 24.4553L4.41473 24.6564ZM4.52315 24.8732L4.90852 24.9804L4.9498 24.832L4.8809 24.6942L4.52315 24.8732ZM2.5177 32.0821L2.13233 31.9749L1.94334 32.6543L2.62343 32.4679L2.5177 32.0821ZM9.83504 30.0766L10.014 29.7189L9.877 29.6504L9.72931 29.6909L9.83504 30.0766ZM27.8146 19.7654L27.9908 19.406L27.9792 19.4008L27.8146 19.7654ZM23.6593 17.8894L23.8239 17.5248L23.8191 17.5227L23.6593 17.8894ZM28.5402 21.1885L28.15 21.1002L28.1494 21.1032L28.5402 21.1885ZM28.3423 22.0942L28.7324 22.1826L28.7331 22.1796L28.3423 22.0942ZM26.2976 25.0052L26.4931 25.3542L26.5 25.3504L26.5066 25.3463L26.2976 25.0052ZM21.2848 25.5874L21.3978 25.2036L21.3908 25.2017L21.2848 25.5874ZM10.1381 17.6307L10.4624 17.3965L10.4579 17.3905L10.1381 17.6307ZM8.02745 10.5149L7.63692 10.4284L7.63649 10.4304L8.02745 10.5149ZM10.0722 7.40984L10.335 7.71134L10.3439 7.70363L10.3522 7.69541L10.0722 7.40984ZM11.5892 6.89231L11.6098 6.49284L11.5995 6.49231H11.5892V6.89231ZM12.8424 6.95697L12.8218 7.35644L12.8321 7.35697H12.8424V6.95697ZM13.9637 7.73323L14.3311 7.57517L14.3302 7.57305L13.9637 7.73323ZM15.7445 11.8733L15.3771 12.0314L15.378 12.0335L15.7445 11.8733ZM15.5466 13.2318L15.8495 13.4931L15.8515 13.4908L15.5466 13.2318ZM14.0955 14.9137L13.7927 14.6524L13.6115 14.8624L13.7447 15.1058L14.0955 14.9137ZM20.4934 20.2829L20.3508 20.6566L20.6253 20.7613L20.8073 20.5307L20.4934 20.2829ZM22.0763 18.2775L21.7751 18.0143L21.7686 18.0218L21.7624 18.0297L22.0763 18.2775ZM26.9571 21.7707L26.5731 21.6588L26.5702 21.6688L26.5678 21.679L26.9571 21.7707ZM25.506 23.8407L25.2943 23.5013L25.2917 23.503L25.506 23.8407ZM27.221 20.8651L27.605 20.977L27.7022 20.6435L27.3856 20.5005L27.221 20.8651ZM23.0657 18.9891L23.2303 18.6245L22.9408 18.4939L22.7479 18.7461L23.0657 18.9891ZM21.4827 21.0591L21.7875 21.3182L21.7942 21.3103L21.8005 21.3021L21.4827 21.0591ZM20.2295 21.4473L20.1052 21.8275L20.1133 21.8301L20.1215 21.8324L20.2295 21.4473ZM12.9083 15.3018L12.5518 15.4835L12.5542 15.4879L12.9083 15.3018ZM13.0402 14.0727L12.7438 13.8041L12.7368 13.8118L12.7302 13.8199L13.0402 14.0727ZM14.6231 12.3261L14.9195 12.5947L15.0933 12.403L14.9897 12.1659L14.6231 12.3261ZM12.8423 8.25068L13.2089 8.09052L13.1149 7.8755L12.8814 7.85259L12.8423 8.25068ZM11.5232 8.12128L11.5622 7.72319L11.5427 7.72128H11.5232V8.12128ZM10.9955 8.31534L11.256 8.6189L11.2661 8.61024L11.2756 8.60092L10.9955 8.31534ZM9.34653 10.7735L9.73664 10.8619L9.73664 10.8619L9.34653 10.7735ZM11.1934 16.8542L11.5147 16.616L11.5147 16.616L11.1934 16.8542ZM21.6146 24.2935L21.5088 24.6793L21.5112 24.6799L21.6146 24.2935ZM17.4234 0.461328C8.25997 0.461328 0.816787 7.9027 0.816787 17.0138H1.61679C1.61679 8.34627 8.70005 1.26133 17.4234 1.26133V0.461328ZM34.1385 17.0137C34.1385 7.9001 26.6385 0.461328 17.4234 0.461328V1.26133C26.2036 1.26133 33.3385 8.34887 33.3385 17.0137H34.1385ZM17.4234 33.7829C26.4802 33.7829 34.1385 26.123 34.1385 17.0137H33.3385C33.3385 25.6829 26.0367 32.9829 17.4234 32.9829V33.7829ZM9.53877 31.6222C12.1307 33.0009 14.8509 33.7829 17.4234 33.7829V32.9829C15.0092 32.9829 12.4175 32.2474 9.91446 30.9159L9.53877 31.6222ZM1.10322 33.9862L9.82983 31.6555L9.6234 30.8826L0.896785 33.2133L1.10322 33.9862ZM2.99957 24.9285L0.614663 33.4925L1.38534 33.7071L3.77025 25.1431L2.99957 24.9285ZM0.816787 17.0138C0.816787 19.9062 1.59596 22.6836 3.03669 25.2326L3.73314 24.839C2.35531 22.4013 1.61679 19.7585 1.61679 17.0138H0.816787ZM17.4234 31.8989C15.1212 31.8989 12.6402 31.1654 10.2461 29.8354L9.85758 30.5347C12.3417 31.9148 14.9558 32.6989 17.4234 32.6989V31.8989ZM32.2544 17.0138C32.2544 25.0868 25.4404 31.8989 17.4234 31.8989V32.6989C25.8841 32.6989 33.0544 25.5268 33.0544 17.0138H32.2544ZM17.4234 2.34539C25.6076 2.34539 32.2544 8.94536 32.2544 17.0138H33.0544C33.0544 8.4961 26.042 1.54539 17.4234 1.54539V2.34539ZM2.70085 17.0138C2.70085 8.94258 9.29617 2.34539 17.4234 2.34539V1.54539C8.85621 1.54539 1.90085 8.49888 1.90085 17.0138H2.70085ZM4.76053 24.4553C3.43848 22.1814 2.70085 19.5944 2.70085 17.0138H1.90085C1.90085 19.7451 2.68079 22.4699 4.06893 24.8574L4.76053 24.4553ZM4.8809 24.6942L4.77248 24.4775L4.05698 24.8353L4.1654 25.0521L4.8809 24.6942ZM2.90307 32.1893L4.90852 24.9804L4.13779 24.766L2.13233 31.9749L2.90307 32.1893ZM9.72931 29.6909L2.41197 31.6963L2.62343 32.4679L9.94077 30.4624L9.72931 29.6909ZM10.2308 29.8273L10.014 29.7189L9.65611 30.4344L9.8729 30.5428L10.2308 29.8273ZM27.9792 19.4008L23.8239 17.5248L23.4947 18.2539L27.65 20.1299L27.9792 19.4008ZM28.9303 21.2769C29.1087 20.4891 28.6608 19.7348 27.9907 19.4062L27.6385 20.1245C28.0237 20.3134 28.2354 20.7234 28.15 21.1002L28.9303 21.2769ZM28.7331 22.1796L28.9309 21.2739L28.1494 21.1032L27.9515 22.0088L28.7331 22.1796ZM26.5066 25.3463C27.6624 24.6379 28.447 23.4422 28.7324 22.1826L27.9522 22.0058C27.7099 23.0751 27.0435 24.0789 26.0886 24.6642L26.5066 25.3463ZM23.1976 26.2462C24.3969 26.2462 25.5188 25.9001 26.4931 25.3542L26.1021 24.6563C25.2295 25.1452 24.2409 25.4462 23.1976 25.4462V26.2462ZM21.1719 25.9712C21.8769 26.1786 22.5761 26.2462 23.1976 26.2462V25.4462C22.6319 25.4462 22.0119 25.3844 21.3978 25.2037L21.1719 25.9712ZM9.81381 17.8649C10.949 19.4366 14.447 24.1245 21.1789 25.9731L21.3908 25.2017C14.9313 23.4279 11.5698 18.9298 10.4624 17.3965L9.81381 17.8649ZM7.63649 10.4304C7.14222 12.7158 7.92844 15.3556 9.81828 17.871L10.4579 17.3905C8.65406 14.9895 7.98934 12.5835 8.41841 10.5995L7.63649 10.4304ZM9.80929 7.10834C9.20517 7.63503 7.99629 8.80718 7.63693 10.4284L8.41797 10.6015C8.71822 9.247 9.75192 8.21971 10.335 7.71134L9.80929 7.10834ZM11.5892 6.49231C11.0145 6.49231 10.2956 6.6304 9.79207 7.12426L10.3522 7.69541C10.6402 7.41302 11.1085 7.29231 11.5892 7.29231V6.49231ZM12.863 6.5575L11.6098 6.49284L11.5686 7.29178L12.8218 7.35644L12.863 6.5575ZM14.3302 7.57305C14.0813 7.00354 13.5584 6.55697 12.8424 6.55697V7.35697C13.1817 7.35697 13.4503 7.55733 13.5972 7.8934L14.3302 7.57305ZM16.112 11.7153L14.3311 7.57517L13.5962 7.89128L15.3771 12.0314L16.112 11.7153ZM15.8515 13.4908C16.2828 12.9831 16.3685 12.3022 16.111 11.7131L15.378 12.0335C15.5163 12.35 15.47 12.7042 15.2418 12.9727L15.8515 13.4908ZM14.3984 15.175L15.8495 13.4931L15.2438 12.9705L13.7927 14.6524L14.3984 15.175ZM20.6359 19.9091C19.4732 19.4657 16.2888 18.0863 14.4464 14.7216L13.7447 15.1058C15.7278 18.7275 19.1391 20.1945 20.3508 20.6566L20.6359 19.9091ZM21.7624 18.0297L20.1794 20.035L20.8073 20.5307L22.3903 18.5253L21.7624 18.0297ZM23.8191 17.5227C23.0418 17.1839 22.2674 17.451 21.7751 18.0143L22.3775 18.5407C22.6767 18.1984 23.0896 18.0774 23.4995 18.2561L23.8191 17.5227ZM26.5678 21.679C26.3921 22.4255 25.9233 23.1088 25.2943 23.5014L25.7178 24.18C26.5399 23.667 27.1264 22.7977 27.3465 21.8623L26.5678 21.679ZM26.837 20.7532L26.5731 21.6588L27.3412 21.8826L27.605 20.977L26.837 20.7532ZM22.9011 19.3537L27.0564 21.2296L27.3856 20.5005L23.2303 18.6245L22.9011 19.3537ZM21.8005 21.3021L23.3834 19.2321L22.7479 18.7461L21.165 20.8162L21.8005 21.3021ZM20.1215 21.8324C20.7315 22.0034 21.3551 21.827 21.7875 21.3182L21.1779 20.8001C20.9507 21.0675 20.6508 21.15 20.3375 21.0621L20.1215 21.8324ZM12.5542 15.4879C14.8023 19.7642 18.8794 21.4267 20.1052 21.8275L20.3538 21.0671C19.2051 20.6915 15.3673 19.1196 13.2623 15.1157L12.5542 15.4879ZM12.7302 13.8199C12.3688 14.263 12.2802 14.9504 12.5519 15.4834L13.2646 15.1202C13.1406 14.8768 13.1839 14.5293 13.3502 14.3255L12.7302 13.8199ZM14.3268 12.0575L12.7438 13.8041L13.3366 14.3413L14.9195 12.5947L14.3268 12.0575ZM12.4758 8.41084L14.2566 12.4863L14.9897 12.1659L13.2089 8.09052L12.4758 8.41084ZM11.4841 8.51937L12.8033 8.64877L12.8814 7.85259L11.5622 7.72319L11.4841 8.51937ZM11.2756 8.60092C11.3151 8.56211 11.4025 8.52128 11.5232 8.52128V7.72128C11.2481 7.72128 10.9397 7.80977 10.7154 8.02977L11.2756 8.60092ZM9.73664 10.8619C9.97031 9.83051 10.7403 9.06137 11.256 8.6189L10.735 8.01178C10.1953 8.47489 9.25034 9.38775 8.95641 10.6851L9.73664 10.8619ZM11.5147 16.616C9.96818 14.5305 9.37679 12.4501 9.73664 10.8619L8.95641 10.6851C8.52478 12.5901 9.25263 14.9086 10.8721 17.0925L11.5147 16.616ZM21.7204 23.9077C15.7234 22.2634 12.56 18.0258 11.5147 16.616L10.872 17.0925C11.9372 18.529 15.2377 22.9598 21.5088 24.6792L21.7204 23.9077ZM25.2917 23.503C24.284 24.1425 23.0849 24.2727 21.7179 23.9071L21.5112 24.6799C23.0463 25.0905 24.4855 24.9621 25.7204 24.1784L25.2917 23.503Z" fill="white" fill-opacity="0.85" mask="url(#path-1-outside-1_36_256)"/>
</svg>
